<svg baseProfile="tiny" xmlns="http://www.w3.org/2000/svg" viewBox="0 0 307 377"><path d="M143.6 137c-1.4-1.1-2.7-2-3.9-3-1.8-1.5-3.1-3.5-3.5-5.9-.1-.3-.2-.6-.4-.8-2.9-2.2-5.8-4.3-9.4-5.1-.9-.2-1.8-.2-2.7-.2-.7 0-1 .3-1.1 1.1-.5 3.7-3.4 6.3-7.1 6.6-3.5.3-6.8-2-7.9-5.3-1.5-4.4 1.3-9 5.9-10 4.4-1 8.8-.8 13.2-.4 4.6.4 9.1 1.2 13.7 1.8h.7c.9-.3 1.8-.8 2.8-1 1-.2 2-.1 3-.2-.1-.3-.2-.7-.3-1.1-3.5-10.5-6.4-21.1-8.5-32-1.3-7.2-2.2-14.3-1.9-21.6.2-4.4.8-8.7 2.9-12.7 2.9-5.7 7.6-8.3 13.9-8.2 2.2 0 4.4.2 6.5.9 4.3 1.5 7.1 4.6 8.8 8.7 1.7 4 2.2 8.2 2.3 12.5.2 8.1-1 16.1-2.6 24-2 9.8-4.8 19.4-7.9 28.9-.1.4-.2.7-.4 1.2.3 0 .5-.1.7-.1 1.8-.4 3.6-.2 5.3.4.5.2 1 .2 1.5.1 6-1.1 12.1-1.7 18.2-1.7 1.8 0 3.5.1 5.3.3 4 .5 6.8 2.8 7.6 6.2.2.9.2 1.8.3 2.8.6-.1 1.3-.1 2.2-.2 1.9 18.3 3.8 36.6 5.8 55.1-12.2 1.2-24.3 2.4-36.5 3.6 0-.6 0-1.2.2-1.7.1-.2.5-.5.8-.5 2.1-.2 4.1-.4 6.2-.6.4 0 .7-.1 1.2-.2-.8-8.2-1.7-16.3-2.5-24.5-1 .1-2 .2-3.1.2.1-.7.1-1.3.2-2l2.7-.3c-.3-2.6-.5-5.1-.8-7.7-.5-4.5-.9-8.9-1.4-13.4-.1-.6-.4-1.3-.4-1.9 0-.9.1-1.9.3-2.8.1-.4.5-.8 1.1-.6h.2c1.4-.5 2.9-.2 4.4-.5 1.5-.2 3-.3 4.5-.5-.1-.7-.2-1.4-.4-2.1-.1-.2-.5-.5-.8-.5-1.8-.4-3.4.1-5 .8-1.3.6-2.5 1.4-3.8 2.1-.3.2-.7.2-1 .5-.3.2-.6.6-.6.9-.2 2.3-.9 4.5-2.5 6.1-1.4 1.4-3.1 2.6-4.7 3.8-.3.3-.7.5-1.1.8 2.3 2.3 4.6 4.6 6.9 6.8 1.1 1 1.5 2 1.4 3.6-1.2 11.3-2.2 22.6-3.2 33.8-.1 1-.2 2-.3 3.1l-1.8-.6c1.1-12 2.2-24 3.3-36.1-.3.3-.5.4-.7.6l-14.2 14.2c-.3.3-.6.9-.6 1.4v15.7c-.5-.1-.9-.3-1.3-.4-.6-.1-.8-.5-.8-1.1v-13.2c0-.7-.2-1.2-.7-1.7-4.5-4.4-8.9-8.9-13.4-13.4l-.8-.8c.8 8.7 1.5 17.2 2.3 25.8h-.3c-1.6-.4-1.6-.4-1.8-2-.7-6.4-1.4-12.8-2-19.2-.2-2.4-.4-4.9-.6-7.3-.1-.6.1-.9.5-1.3 2.5-2.4 4.9-4.9 7.3-7.3.1-.3.3-.5.6-.7zm10.4 6c2.8-3.8 6.4-6.4 10.3-8.7l1.8-1.2c5.1-3.6 4.5-9.2 2.4-12.8-2-3.6-6.4-4.6-9.9-2.4-1.6 1-2.6 2.4-3.5 4-.2.4-.7 1-1.1 1.1-.7.2-.9-.6-1.2-1.1-.4-.8-.8-1.5-1.4-2.2-3.8-4.8-10.4-3.9-12.5 1.8-2 5.2-.8 9 3.2 11.9 1 .7 2 1.4 3 2 3.4 1.9 6.5 4.2 8.9 7.6zm50.5 33c-.9-8.2-1.7-16.3-2.6-24.4-8 .8-16 1.5-24 2.3.9 8.2 1.7 16.4 2.5 24.5 8.1-.8 16-1.6 24.1-2.4zm-29.3-48.3c.8 8.1 1.7 16.1 2.5 24.2 8-.8 16-1.5 24-2.3-.9-8.3-1.7-16.4-2.6-24.6-.5.2-1 .2-1.2.5-.7.7-1.3 1.5-2.1 2.2-.7.6-1.4 1.2-2.3 1.4-3.2.9-6 .1-8.6-2-.2-.2-.5-.4-.7-.3-2.9.2-5.9.5-9 .9zm-36.3-10.2c-6.1-1.1-12-1.8-18-1.8-2.5 0-5.1 0-7.6.8-2.8.9-4.5 3.6-4.1 6.5.5 2.9 3.1 4.9 6.1 4.7 2.8-.2 5.2-2.5 5.3-5.4 0-1 .5-1.5 1.3-1.8 1.5-.6 3.1-.6 4.7-.3 3.1.7 5.8 2.3 8.5 4 .3.2.6.4 1 .6.2-2.7 1-5.1 2.8-7.3zm21.5 21.8c1.8 1.9 3.4 3.8 5.1 5.6.5.6.6.9 0 1.5-4.1 4-8.1 8-12.1 12-.5.5-.8.5-1.3 0-3.7-3.9-7.3-7.8-11-11.6-.5-.5-.5-.8 0-1.3 1.8-1.9 3.5-3.8 5.3-5.8.2-.2.4-.4.6-.7-.5-.4-1-.7-1.4-.9l-8.1 8.1 15.3 15.3c5.3-5.3 10.7-10.6 16-15.8-2.4-2.4-4.7-4.8-7.2-7.2-.3.1-.7.4-1.2.8zm11.4-15.8c.4-.3.7-.5 1-.6 1.9-.9 3.7-1.8 5.6-2.5 1.8-.6 3.6-.7 5.5.1.8.3 1.3.8 1.3 1.8.1 2.8 2.4 5.2 5.2 5.4 3 .2 5.6-1.7 6.2-4.6.5-2.9-1.1-5.8-3.9-6.5-1.4-.4-2.9-.6-4.3-.7-6.4-.4-12.7.3-19 1.3-.2 0-.3.1-.5.2 1.6 1.7 2.5 3.7 2.9 6.1zM158 100.7l.2-.2c1.4-2.6 2.7-5.1 4-7.7.1-.2.1-.6 0-.9-1-2.2-2.1-4.4-3.1-6.7-.1-.2-.2-.3-.4-.6-1.4 2.6-2.7 5-4 7.5-.1.2-.1.5 0 .7 1 2.7 2.1 5.3 3.3 7.9zm-8.3.1c.4-1 .8-2 1.2-2.9.4-1 .7-2 1.3-2.9 1.1-1.7 1-3.3-.2-5-1.1-1.7-2-3.5-3-5.3-.2.4-.4.6-.5.8-.9 1.8-1.7 3.7-2.6 5.5-.5 1-.4 1.8.1 2.8 1.3 2.2 2.4 4.5 3.7 7zm4.1-24.6c-1.4 2.4-2.7 4.5-4 6.7-.3.5-.2.9.1 1.4 1.2 2 2.3 4.1 3.5 6.2.1.2.3.5.4.8 1.4-2.5 2.8-4.8 4.1-7.2.1-.2.2-.6 0-.7-1.3-2.5-2.6-4.7-4.1-7.2zm.1 17.6l-.3.3c-1.1 2.6-2.1 5.1-3.2 7.7-.1.3 0 .6.1.9 1 2.7 2.1 5.4 3.1 8.1 0 .1.1.2.2.3.9-2.4 1.7-4.7 2.7-7 .7-1.4.7-2.7 0-4.1-.9-1.9-1.7-4.1-2.6-6.2zm-5.1-11.4c1.1-1.7 2.1-3.5 3.2-5.2 1.2-1.8 1.2-1.8-.1-3.6-1.1-1.4-2.1-2.9-3.3-4.4-1.4 2.3-2.7 4.5-4 6.6-.1.2-.1.5 0 .6 1.4 2.1 2.8 4 4.2 6zM159 69.2c-1.6 2.1-3 4.1-4.4 6-.1.1 0 .5.2.8.9 1.5 1.8 2.9 2.7 4.4l1.2 2.1c1.4-2 2.8-4 4.2-5.9.1-.2.1-.5 0-.7-1.2-2.2-2.5-4.3-3.9-6.7zm-14.5 22.1c.8-1.8 1.6-3.3 2.3-4.9.5-1 1.3-2 1.3-2.9-.1-1-1.1-1.9-1.7-2.8-.8-1.2-1.6-2.3-2.6-3.6-1.1 2.2-2.1 4.2-3 6.1-.1.3 0 .6 0 1 .2 2.8 2.5 4.6 3.7 7.1zm9.3-16.9c1.4-1.9 2.9-3.8 4.3-5.6.1-.2.2-.5.1-.6-1.4-1.9-2.8-3.8-4.3-5.9-1.6 2.1-3.1 4.1-4.6 6 1.5 2.1 3 4.1 4.5 6.1zm9.3 16.8c1.2-1.9 2.3-3.5 2.8-5.7s.4-4.1-.8-5.9c-.5-.7-.8-1.5-1.3-2.4-1 1.5-1.9 2.9-2.9 4.1-1.3 1.5-1.5 2.9-.3 4.7.9 1.5 1.6 3.4 2.5 5.2zm-19.7-27.9c-1.4 2.2-2.6 4.3-3.9 6.3-.1.2-.1.5 0 .6 1.4 1.7 2.8 3.3 4.2 4.9 1.4-2.2 2.7-4.3 4-6.4.1-.1.1-.5-.1-.6-1.3-1.5-2.7-3.1-4.2-4.8zm24.9 6.6c-1.4-2.2-2.7-4.3-4.2-6.6-1.6 1.8-3.1 3.5-4.5 5.1 1.5 2.3 2.8 4.5 4.3 6.8 1.5-1.8 2.9-3.5 4.4-5.3zM144 62.4c1.6 1.8 3.1 3.4 4.5 5.1 1.5-2 3-4 4.6-6-1.5-1.6-3-3.3-4.5-5-1.6 2-3.1 4-4.6 5.9zm15-5.9c-1.6 1.8-3.1 3.4-4.6 5.1 1.6 2.1 3.1 4 4.6 6 1.4-1.6 2.8-3.1 4.2-4.6.1-.2.2-.6.1-.7-1.4-2-2.8-3.9-4.3-5.8zm-11.2-.8c-1.5-1.4-3-2.8-4.5-4.3-1.6 2-3.1 3.9-4.7 5.8 1.6 1.5 3.1 3 4.6 4.4 1.6-1.9 3.1-3.8 4.6-5.9zm12 0c1.6 2.1 3.1 4 4.8 6.2 1.2-1.3 2.2-2.5 3.4-3.7.7-.7.7-1.4.2-2-1.2-1.6-2.5-3.2-3.8-4.9-1.7 1.6-3.1 3-4.6 4.4zm-6-5c-1.6 1.7-3.1 3.4-4.5 5 1.6 1.7 3.1 3.4 4.6 5 1.5-1.7 3-3.3 4.5-5-1.6-1.7-3-3.3-4.6-5zm5.1-4.9c-1.5 1.4-3 2.8-4.4 4.2 1.6 1.7 3.1 3.4 4.6 5 1.5-1.4 3-2.8 4.5-4.3-1.6-1.7-3.1-3.3-4.7-4.9zM144 50.7c1.5 1.5 3 2.9 4.5 4.3 1.5-1.7 3-3.3 4.6-5-1.5-1.4-2.9-2.7-4.4-4.2-1.6 1.6-3.2 3.2-4.7 4.9zm6 53.2h-.3c-.2.8-.4 1.5-.7 2.3-1.1 2.7-1.3 5.3.1 7.9l.3.9c.1.2.2.4.3.5.8.6 1.6 1.1 2.4 1.6.4-1.3.7-2.6 1.1-3.9v-.5c-1.1-2.9-2.2-5.8-3.2-8.8zm7.9-.2c-.2.3-.3.4-.3.5-1 2.8-2.1 5.6-3.1 8.4-.1.2-.1.4-.1.6.4 1.4.8 2.8 1.2 4.3 1.1-.7 1.7-1.5 2-2.6.5-1.7 1.1-3.4 1.6-5 .1-.3.3-.6.2-.9-.4-1.7-1-3.4-1.5-5.3zm.3-58.7c-1.5-1.3-2.9-2.6-4.4-3.9-1.5 1.4-2.9 2.6-4.4 4 1.5 1.4 2.9 2.8 4.4 4.1 1.5-1.4 2.9-2.8 4.4-4.2zM147 108.2h.2c.6-1.7 1.1-3.5 1.6-5.2.1-.4.1-1-.1-1.3-1.2-2.4-2.5-4.9-3.7-7.3-.1-.2-.3-.4-.5-.7-.3 1.2-1 2.2-.7 3.1 1 3.8 2.1 7.6 3.2 11.4zm15.8-14.6c-1.5 2.9-2.8 5.6-4.2 8.3-.1.2-.1.4-.1.6.5 1.5 1 3 1.5 4.7.1-.4.2-.6.3-.8 1-3.4 1.9-6.7 2.9-10.1.3-1 .2-1.7-.4-2.7zm-24.4-35.2v10.4h.2c1.3-2.1 2.7-4.2 3.8-6-1.3-1.4-2.6-2.8-4-4.4zm9.5-13.3c-.9-.8-1.8-1.5-2.6-2.2-2 1.3-3.3 3.1-4.4 5.2.8.7 1.5 1.3 2.3 2 1.5-1.8 3.1-3.4 4.7-5zm-7.7 36.4h.2c.8-1.5 1.5-3 2.3-4.4.3-.6.4-1-.1-1.6-.4-.4-.8-1-1.2-1.5-.8-1-1.6-1.9-2.5-2.9-.1 0-.2.1-.3.1.5 3.5 1.1 6.9 1.6 10.3zm19.5-36.4c1.6 1.7 3.1 3.3 4.7 4.9.5-.4.8-.8 1.3-1.1.5-.3.5-.7.2-1.1-.9-1.3-1.8-2.6-2.8-3.8-.9-1-1-.9-2-.1-.5.4-.9.8-1.4 1.2zm5.3 17.7c1.1 1.6 2.2 3.4 3.3 5.1.1 0 .1 0 .2-.1V59c-1.2 1.4-2.3 2.5-3.5 3.8zm1.7 17.6h.2c.4-2.8.8-5.5 1.2-8.3-.1 0-.1-.1-.2-.1-1.1 1.4-2.2 2.7-3.3 4.1-.1.1-.1.3 0 .4l2.1 3.9zm-18.1-36c1.3-1.2 2.5-2.3 4-3.6-2.4.1-4.4.5-6.4 1.6.9.6 1.6 1.3 2.4 2zm-6.1 6.4c-.7-.6-1.3-1.2-2.2-1.9-.6 2.2-1.1 4.2-1.7 6.2.1 0 .2.1.3.1 1.2-1.5 2.3-2.9 3.6-4.4zm16.5-6.4l2.1-1.8c-1.5-1.1-4.4-1.9-5.8-1.6 1.2 1.1 2.4 2.2 3.7 3.4zm8.8 9.6c.1 0 .1-.1.2-.1-.4-1.5-.8-2.9-1.3-4.5-.6.5-1.1.9-1.6 1.4.9 1.1 1.8 2.2 2.7 3.2zM154 119.6c1.4-1.5-.1-2.9-.2-4.3-.4 1.5-1.6 3 .2 4.3zm-11.9-30.2c-.1 0-.1.1-.2.1.4 1.6.8 3.2 1.2 4.9h.3c.1-.7.5-1.5.3-2.1-.3-1.1-1-2-1.6-2.9zm22.4 1.9c-.5.6-1.3 1-.5 2 .2-.7.4-1.4.5-2zM161.3 286.6c.1-.7.1-1.3.2-2 6.7-.7 13.5-1.3 20.3-2 0-.5-.1-.9-.1-1.4-.3-3.8-.7-7.6-1-11.4-.1-.7-.3-.9-1-1.2-5.4-1.9-10.9-3.8-16.3-5.6-5.9-2-11.9-4-17.9-5.9-12.7-4.1-25.3-8.2-37.6-13.3-2.8-1.1-5.5-2.6-8.2-3.9-1.8-.9-2.6-2.2-2.6-4.3.1-8.2.1-16.3.1-24.5 0-.9.9-2 1.9-2.1 4.5-.5 9-.9 13.5-1.4 7.4-.7 14.9-1.5 22.3-2.3 1.4-.2 2.6.5 3.8.9.2 0 .2.5.4.8-4.4.5-8.7.9-13.1 1.3.2 2.6.5 5.1.7 7.6l.6 6c0 .7.3.9.9 1.1 3.8 1.2 7.5 2.4 11.3 3.6 6.9 2.3 13.8 4.6 20.7 7 7.8 2.7 15.5 5.3 23.2 8.1 7.7 2.8 15.4 5.6 22.7 9.3 1.2.6 2.3 1.4 3.3 2.1.6.4.9 1 .8 1.9-.1.6 0 1.1 0 1.7v22.4c0 .6.1 1.3.1 1.9 0 .7-.4 1-1 1-3.6.3-7.2.6-10.8 1-7.1.7-14.3 1.4-21.4 2.1-4.7.5-9.3.9-14 1.4-.6.1-1.2.1-1.8.1zm46.8-8.2v-1.1-21.4c0-.9-.3-1.4-1-1.8-2.8-1.4-5.6-2.9-8.5-4.1-15.4-6.5-31.2-11.6-47-17-5.4-1.8-10.8-3.5-16.3-5.3-9.7-3.2-19.3-6.5-28.7-10.4-2.5-1.1-4.9-2.3-7.5-3.5v20.7c0 2.9 0 3 2.6 4.4 5.4 2.8 11.1 5 16.8 7 12 4.1 24 8 35.9 12.1 11.4 3.9 22.7 7.8 34 11.9 6 2.2 11.8 5 17.7 7.5.8.3 1.3.6 2 1zM99.5 211.1c0 .1-.1.1-.1.2.9.5 1.7 1.2 2.6 1.5 7.7 3.1 15.3 6.2 23.2 9.3-.5-4.6-.9-9-1.3-13.5-8.3.9-16.4 1.7-24.4 2.5zm107.2 69.1c0-.1.1-.2.1-.2-1.4-.7-2.7-1.6-4.2-2.2-5.5-2.4-11.1-4.7-16.7-7-1-.4-2.1-.6-3.3-.9.4 4.3.8 8.4 1.2 12.6 7.7-.8 15.3-1.6 22.9-2.3z"/><path d="M134.3 156c.1.7.1 1.3.2 2-3.2.3-6.2.6-9.5.9.2 1.6.3 3.1.4 4.6.3 2.7.6 5.5.8 8.2.1.6.3.8.8 1 8.5 2.8 17 5.5 25.5 8.3 4.3 1.4 8.6 2.9 12.8 4.4 7.1 2.5 14.3 4.9 21.3 7.6 6.2 2.4 12.4 5.1 18.5 7.7 1.5.6 2.8 1.6 4.1 2.5.6.4.9 1 .8 1.8-.1.8 0 1.7 0 2.5v21.7c0 .6.1 1.3.1 1.9 0 .8-.6 1.1-1.4.9-.4-.1-.9-.2-1.4-.2-7.4.5-14.7 1.1-22.1 1.7-5.6.4-11.1.9-16.7 1.2-.9.1-1.9-.3-2.8-.6-.1 0-.3-.5-.2-.7.1-.2.4-.5.6-.5 2-.2 4-.3 6-.5 2.7-.2 5.3-.4 8-.6.2 0 .4-.1.7-.1-.1-1.5-.3-3.1-.4-4.6-.3-2.6-.6-5.2-.8-7.8-.1-.6-.3-.8-.8-1-2.9-1-5.9-2.1-8.8-3.1-5.5-1.9-11.1-3.7-16.6-5.5-4.6-1.5-9.2-3.1-13.9-4.7-4.4-1.4-8.8-2.8-13.2-4.3-8.1-2.8-16.2-5.6-23.9-9.3-1.6-.8-3-1.8-4.6-2.7-.6-.3-.8-.9-.8-1.5v-13.9-12c0-1.2.5-1.8 1.7-1.9l16.2-1.5c6.2-.6 12.5-1.2 18.7-1.8.3-.1.5-.1.7-.1zm-35.1 7.7v20.1c0 3.7-.1 3.8 3.3 5.3 4.3 2 8.7 4 13.2 5.5 12.9 4.5 25.8 8.7 38.7 13.2 11.2 3.8 22.4 7.7 33.5 11.7 6.8 2.4 13.5 5 19.8 8.5.1 0 .2 0 .4.1V227v-21c0-1.1-.3-1.8-1.3-2.2-3.7-1.7-7.3-3.6-11-5.1-17.2-6.9-34.7-12.7-52.3-18.4-11.9-3.9-23.7-7.7-35.3-12.4l-9-4.2zm25.1 8c-.4-4.3-.9-8.4-1.3-12.6-7.8.7-15.5 1.5-23.2 2.2v.3c.8.4 1.5.9 2.3 1.3 4.5 1.9 9.1 3.8 13.6 5.6 2.8 1 5.5 2.4 8.6 3.2zm57.5 47.6c.4 4.2.9 8.1 1.3 12.1 7.8-.6 15.5-1.2 23.1-1.8 0-.1 0-.2.1-.3-1.1-.5-2.3-1-3.4-1.5-6.3-2.7-12.6-5.4-18.9-8-.7-.2-1.4-.3-2.2-.5zM159.3 263.5c.6.2 1 .3 1.4.5.2.1.5.5.5.7-.5 6.2-1.1 12.4-1.7 18.5l-.9 11.7c-.5 4.9-1 9.7-1.5 14.6-.5 5.6-1 11.2-1.4 16.7l-.6 7.2c-.1.9-.3 1.9-.4 2.8-.1.6-.2 1.2-.9 1.2-.6 0-1.2-.3-1.3-1.1-.3-2.1-.7-4.1-.9-6.2-.4-4.2-.8-8.5-1.1-12.7-.7-7.2-1.3-14.5-2-21.7l-1.2-12c-.5-5.3-.9-10.6-1.4-15.8-.2-2.4-.5-4.9-.7-7.3-.1-1.4.2-1.6 1.5-1.2.1 0 .3.1.5.1l4.8 53.1h.2v-51.3c.6.2 1.1.3 1.6.5.2.1.3.3.3.5.1.2 0 .4 0 .6v53.5c0 .5 0 1 .2 1.4 1.7-18.1 3.4-36.1 5-54.3zM131.1 287.6c4.9-.5 9.7-.9 14.5-1.4.1.7.1 1.3.2 2-4.9.5-9.6.9-14.5 1.4.8 7.9 1.6 15.7 2.4 23.6 4.7-.5 9.4-.9 14.1-1.4.1.7.1 1.3.2 2-14 1.4-28 2.8-42 4.3-.9-9.2-1.8-18.4-2.8-27.8 8.6-.8 17.2-1.7 25.8-2.5l-2.7-26.4c5.7-.5 11.3-1 17-1.5.1.7.1 1.3.2 2-5 .5-9.9.9-15 1.4 1 8 1.8 16.1 2.6 24.3zm-1.8 2.2c-8 .8-15.9 1.5-23.8 2.3.8 8 1.6 15.8 2.3 23.7 8-.8 15.9-1.6 23.9-2.4-.8-7.9-1.6-15.7-2.4-23.6z"/><path d="M145.6 284.4c-4.3.4-8.4.8-12.7 1.2-.7-6.9-1.3-13.8-1.9-20.8 4.3-.4 8.5-.8 12.9-1.2.5 7 1.1 13.8 1.7 20.8zM147.8 310.2c-4.2.4-8.4.8-12.6 1.3-.6-6.8-1.3-13.5-1.9-20.4 4.3-.4 8.4-.8 12.8-1.3.5 6.8 1.1 13.5 1.7 20.4zM161.7 282.8c.6-6 1.2-11.9 1.7-17.9 1.6.5 3.1 1 4.6 1.6 3.4 1.2 6.8 2.4 10.3 3.6.6.2.8.6.9 1.2.2 3 .4 6 .6 9.1v.7c-6.1.5-12 1.1-18.1 1.7zM128.1 210.1c3.7-.3 7.3-.6 11-1 .5 5.5 1 10.8 1.5 16.3-.3-.1-.6-.1-.8-.2-3.3-1.1-6.5-2.1-9.8-3.2-.6-.2-.9-.5-.9-1.2-.2-3.3-.6-6.5-.8-9.8-.2-.2-.2-.5-.2-.9zM167.3 215.9c2.6.9 5 1.7 7.4 2.5.6.2 1.2.6 1.9.7 1.5.3 1.8 1.1 1.9 2.5.1 2.5.4 4.9.6 7.3 0 .3 0 .6.1 1-4.4.4-8.7.8-13.2 1.2.3-5 .8-10 1.3-15.2zM162.1 304.1c1 1.3-.1 2.1-.7 3-.4.7-1.1.3-1.7-.2.2.8.8 1.7.6 2.3-.3.9-.3 1.6-.1 2.4.2-.7.3-1.6 1.3-1.4.3.1.8.6.8 1 .1.8-.6 1-1.2 1-.1 1-.4 1.5-1.1 1.5-.6 0-1.3-.9-1.2-1.7.4-4.2.8-8.3 1.3-12.5.1-.7.5-1.3.8-2-.2-.1-.4-.1-.6-.2.3-2.8.5-5.6.9-8.5 0-.2.3-.5.5-.6 2.4-.3 4.8-.5 7.1-.7 0 .6 0 1.1-.1 1.5-.1.5-.5.9-.7 1.4.5.8.4 1.1-.6 1.8.6.6.4 1.1 0 1.8-.5 1-.6 2.3-1.1 3.3-.4.8-.1 2.1-1.2 2.3-.3.6-.4 1.1-.6 1.6-.3.7-.7 1.4-.9 2.1-.3.8-.7 1.2-1.5.8-.4-.1-1-.4-1.1-.3-.4.3-.5.9-.8 1.4.1.1.2.1.3.2 0-1.2.9-1.1 1.6-1.3zm3-10c.1 0 .2.1.3.1.3-.7.6-1.4.8-2.1.1 0 .1.1.2.1-.1-.4-.3-.8-.4-1.1-.1 0-.1 0-.2-.1-.2 1-.4 2-.7 3.1zm-1.5 5.3c.1 0 .1 0 .2.1 0-.5.1-1 .1-1.4h-1c.3.4.5.9.7 1.3zM127.1 160c2.5-.2 5-.5 7.5-.7l1.5 14.4c-.3 0-.5 0-.7-.1-2.2-.7-4.5-1.5-6.7-2.3-.3-.1-.7-.4-.7-.7-.4-3.4-.7-6.9-1-10.3.1 0 .1-.1.1-.3zM176.3 176.8c-2 .2-3.8.4-5.8.5.2-1.9.3-3.8.5-5.6.5-4.7.9-9.4 1.4-14.1.1-1.6.2-1.6 2-1.4.7 6.8 1.3 13.6 1.9 20.6zM135.1 130.7c1.4 2.9 3.5 4.7 5.8 6.4l-5 5c0-.1.1-.4.1-.9-.5.4-.7.7-1.1 1 .3.2.5.3.7.4-.6 1.3-2.5 1.7-2.3 3.5-.8-.8-.5-1.7-.4-2.5.1-.4.7-.7 1.1-1.1-.8-.5-1.1-1.6-.5-2.6.1-.2.1-.5.1-.8 0-.6 0-1.3.1-1.9.1-.8 0-1.6.4-2.2.6-1.1 0-2.4 1-3.3 0-.2-.1-.6 0-1zM164.7 156.4c-.1.2-.3.5-.4.7-.1.2-.2.4-.2.6-.1.3.1.8-.6.6-.1 0-.3.2-.3.4-.1.2-.2.6-.3.6-.3 0-.5-.2-.7-.2-.1.3-.2.6-.3 1-.3-.2-.6-.4-1.1-.6.1.2.1.4.2.6.1.3.2.6.3.8-.3-.1-.7-.1-1-.2l-.6-.3-.3.6c.3 0 .6 0 .6.1.1.2.2.5.2.7-.2 0-.5.1-.7.1-.3-.1-.6-.3-.9-.4.1.6.1 1 .2 1.4-.3 0-.5 0-.8.1.2 1.3-1 .4-1.5.7v.3h1.1c.2 0 .5 0 .6.1.1.1.1.4.1.6 0 .1-.3.3-.4.2-1.1-.5-.7.2-.5.7v.1c.4.3.8.5.9.7 0 1.3-1.1.3-1.6.8.4.1.7.2 1 .3.2.1.5.1.6.3.1.1 0 .5-.1.5-.2.1-.4 0-.6 0-.2 0-.3 0-.5.1.4.2.8.4 1.1.6.1.1.3.5.2.6-.2.2-.4.2-.7.3-.1 0-.2-.2-.3-.3-.1-.1-.3-.2-.4-.1-.1.1-.3.2-.3.4 0 .1.2.2.3.3.2.2.5.3.5.5 0 .1-.2.4-.3.5-.2.2-.5.5-.5.6.1.3.4.4.8.5 0-.1-.1-.2-.1-.3 0-.2 0-.5.1-.7.1-.1.5-.1.5 0 .1.2.1.5.1.7 0 .1-.2.2-.2.3.7 1.4-.3 1-1 .9-.1 0-.2.1-.2.1.2.3.3.6.6.7 1 .5.5.9-.1 1.3.8.5.8.5-.1 1.5.3.3.9.6.9.9-.2.8-.8.1-1.2.2-.1 0-.2.1-.1 0 .2.4.4.7.6 1.1 0 0 0 .1.1.1.2.2.4.5.5.7-.5.2-1 .5-1.4.5-.2 0-.7-.4-.7-.6v-7.4-8.9c0-.3.2-.8.4-1 1.9-1.7 3.9-3.5 5.9-5.1.7-.5 1.5-.9 2.3-1.3.1.3.2.4.3.4zM144.3 226.8c-.6-.2-1.2-.3-1.8-.6-.2-.1-.3-.5-.4-.7-.5-5.3-1-10.5-1.4-15.8-.1-.9-.1-1.7-.2-2.6.1 0 .2-.1.2-.1 1.8.5 1.8.5 2 2.4.5 5.6 1 11.1 1.5 16.7.1.2.1.4.1.7zM144.6 112.8c-.9.2-1.7.3-2.5.4.2-.5.5-1 .7-1.5-.1 0-.1-.1-.2-.1-.2.3-.3.5-.5.8-.6 1.1-1.1 2-2.9 1.4.1-.5.2-1.1.4-1.8-.6.4-.6.4-1 1.7l-1.8-.3c0-.2-.1-.2-.1-.3.2-.7.8-1.3.8-2.1 0-.2.6-.5.8-.8.2-.5.5-.9.7-1.4.1-.1.2-.3.2-.4-.2-1 .4-1.3 1.2-1.4-.1-.7-.1-1.3.8-1.6.1 0 .2-.3.2-.4.1-.3.1-.6.2-.9h.2c1 2.9 1.9 5.8 2.8 8.7zM164 233.3h-.2c-1.7-.5-1.7-.5-1.6-2.2.5-5.2.9-10.4 1.4-15.6 0-.2.1-.3.1-.5h.3c1.8.5 1.8.5 1.6 2.4-.5 5.2-1 10.4-1.5 15.5 0 0 0 .2-.1.4zM152.3 211c.1 0 .3 0 .4.1.5.2 1 .3 1.4.5v18.5c-.6-.2-1.1-.3-1.6-.5-.2-.1-.4-.4-.4-.6v-17.8c.1-.1.2-.1.2-.2zM142 169.6c.4.4.6.6.9.8-.3.2-.6.4-1 .7.1.1.3.2.5.4s.5.4.5.5c-.1.3-.3.5-.5.7.3.3 1.2.5.2 1.2-.1.1.1.4.1.7.1.3.3.6.2.8-.2.2-.6.5-.8.4-.4-.1-.9-.4-1-.7-.2-.7-.1-1.5-.2-2.2-.3-3.8-.6-7.5-1-11.3-.2-2.7-.5-5.3-.8-8 1.2.3 1.2 1.5 1.7 2.3 0 .1 0 .2.1.2.2.2.4.4.6.5-.2.2-.5.4-.8.6.1.4 1.4.7.2 1.5.9.2.8.7.4 1.1.3.2.5.4.7.5-.3.3-.5.6-.8.9.5.4.9.9-.1 1.3.1.6 1.5.1 1 1.3-.2.5.4 1.3-.6 1.3.3.3.6.6.9.8-.3.2-.6.4-1 .6l.4.2.6.6c-.3.1-.6.2-.8.3-.1 0-.2 0-.3.1.3.1.6.2.9.4.2.1.4.2.4.4s-.1.4-.2.5c-.1.3-.4.5-.4.6zM155.4 262.2c.6.3 1 .5 1.5.7-.3.3-.4.5-.7.8.4.1.8.1 1.1.2.2.1.4.2.5.3.1.1 0 .4-.1.5-.2.1-.4.1-.6.1-.3 0-.6-.1-1-.2-.1.8.2.9.7.8.3-.1.6.1.9.2-.2.2-.4.5-.6.6-.3.2-.6.2-1 .5.3.1.7.1 1 .2.2.1.5.2.6.3 0 .2-.1.5-.3.6-.2.2-.6.3-1.1.5.4.1.7.1 1 .3.2.1.3.4.5.6-.2.1-.4.3-.6.3-.2.1-.5 0-.7 0 0 .1.1.4.1.4.2 0 .5-.1.7-.1.3 0 .5.2.7.3-.1.2-.3.6-.4.6-.7-.1-.9.2-.8.9 0 .2-.2.4-.4.6.7.5.6.7-.1 1.4.2 0 .3-.1.5-.1h.8c-.1.2-.2.5-.4.7-.2.2-.5.3-.6.5.2-.1.5-.1.7-.2 0 0 .1 0 .2.1.4.8-.4.8-.9 1.3h.9c0 .3 0 .6-.1.9-.3 0-.6 0-.8-.1.3.5.5.9.8 1.4l-.2.2h-.6c.2.5.4 1 .7 1.5-.1.1-.2.1-.3.2-.2-.1-.4-.2-.7-.3 0 .1-.1.1-.1.2.3.2.5.3.9.6v.6c-.2.1-.5.2-.6.2.2.3.4.6.7 1-.5.2-.8.2-1.1.3.3.2.6.3.8.5-.2.3-.5.6-.7.9.1.1.3.4.2.6-.3 1-.6 2-.8 2.8-.2-8.4-.2-16.7-.2-25.2zM145.9 212.4c.9.9.9.9.3 1.3.2.2.7.5.6.7-.1.5-.5.5-.9.2-.1-.1-.4.1-.6.1v.2c.3.1.5.2.8.2.3.1.5.1.8.2.1 0 0 .4 0 .5-.3.1-.5.1-.8.1-.1 0-.2 0-.4.1.2.2.3.3.4.3 1.1.2.9 1.1.9 1.8 0 .1-.4.4-.6.5-.2.1-.4-.1-.7 0 .3.2.7.4 1 .6.2.2.3.4.5.7-.3 0-.6.1-.9 0-.1 0-.3-.1-.5-.2-.2.8.6.7.9 1 .2.2.5.2.7.4 0 0-.1.5-.2.5-.3 0-.5-.1-.8-.2-.1 0-.3 0-.4.2.3.1.6.2.8.4l.6.6c-.3.1-.6.1-.9.2-.1 0-.3 0-.5.1.3.2.7.4.9.6.2.2.2.5.4.7h-.8c-.1 0-.2-.1-.3-.2v.4c.6.4 1.7.6.7 1.7-.1.1.1.4.2.6.1.3.3.5.5.7-.1.1-.3.3-.4.2-.3-.1-.5-.4-.8-.6-.6.4-.9.3-.9-.5l-.6-8.7c-.2-2.1-.3-4.3-.5-6.4-.1-1.1-.3-2.1-.5-3.4.5.2.9.3 1.2.4-.1.1-.1.2-.2.2.2.3.5.6.7.8.2.2.7.4.7.6 0 .3-.3.6-.5.8.1.2.5.4.5.7.1.4-.3.6-.4.9zM155.7 212.1l2.1.7c-.4.2-.7.4-1.1.7.4.2.6.4.8.5.2.2.3.5.4.7-.3 0-.6.1-.8.1-.1 0-.2-.1-.3-.2 0 .1-.1.1-.1.2.2.1.5.2.7.4.2.2.4.5.6.7-.3 0-.6.1-.9.1-.1 0-.2 0-.3.2.2.1.5.2.7.4l.6.3c.1.1 0 .4-.1.5-.2.1-.5.1-.7 0-.2 0-.4-.1-.7-.1.4.4.6.7.8 1l.6.6c-.2.2-.5.4-.8.7.2.2.6.4.7.7 0 .2-.3.6-.5.9.7.6.8.8 0 1.3.8.5 1.1.6-.1 1.5.3.1.5.1.6.2.1.1.3.3.3.5 0 .1-.2.3-.3.4-.6.3-.6.3-1.3 1 .4-.1.6-.2.8-.1.2.1.5.3.7.4-.2.2-.3.5-.6.6-.3.1-.7.1-1 .2v.2c.3.1.6.1.8.2.2.1.4.4.5.6-.2.1-.4.3-.7.4-.2.1-.5 0-.7 0 0 .1 0 .1-.1.2.2.1.5.2.7.3.2.1.5.1.7.2.1 0 0 .5-.1.5-.3.1-.5 0-.8.1-.1 0-.1 0-.3.2l.6.3.6.6c-.3.1-.5.4-.8.3-1.6-.3-1.5-.4-1.5-2 .1-3.8.2-7.7.3-11.6.1-2.1 0-3.7 0-5.6zM149.8 260.3c-.2.3-.3.6-.4.8 0 .1.1.1.1.2.2-.1.4-.2.6-.2.2 0 .5.1.7.2-.1.2-.1.5-.3.7-.3.2-.6.4-1 .5.1.1.1.2.1.2.4.4 1.4-.1 1.2.9-.1.5-.6.9-.9 1.4.2.1.5.1.7.3.2.2.4.4.5.7-.2.1-.5.2-.7.3-.2.1-.4.1-.9.2.8.3 1.3.5 1.8.6-.4.3-.8.6-1.2 1 .2.5 1.4-.1 1.2.8 0 .2-.7.4-1.1.5v.1c.4.1.8.3 1.2.4-.2.8-.5 1.5-.7 2.4.6.4.8 1.4.6 2.7-.1.5-.7 1.1 0 1.7 0 0-.3.5-.3.7 0 .4.1.9 0 1.3-.1.8-.3 1.6-.6 2.3-.6-7-1.3-13.9-1.9-21 .5 0 .8.2 1.3.3zM130.8 142.7c-.5-.5-.6-1-.3-1.7.3-.8.4-1.8.5-2.7.1-.7.4-1.1 1.2-1 .7.1 1 .7.8 1.3-.2 1.1-.5 2.2-.7 3.3-.1.3-.3.5-.5.8.7 1.1.5 3.4-.5 4.1.5.5.5 1 .3 1.7s0 1.6 0 2.4c0 .4-.1.9-.4 1.2-.2.2-.9.2-1 0-.3-.3-.4-.8-.4-1.2 0-1 0-1.9.1-2.9 0-.5.4-.9.6-1.5-.7-.7-.6-2.9.3-3.8zM131.6 134.8c.1-.9.2-1.5.3-2 .2-1 .5-2.1.8-3.1.2-.6.5-1.2.7-1.9 1.6 1 1.6 2.5.2 4 .4 1 .1 2.4-.7 3.1.4.6.4 1.3-.4 1.6-.3.1-1-.1-1.2-.3-.4-.6-.1-1.2.3-1.4zM174.2 186.6c-1.3-.5-2.5-.9-3.8-1.3-.2-.1-.3-.4-.3-.6 0-.5 0-.9.1-1.5 1.2-.1 2.4-.4 3.6-.3.8 0 .8 1 .8 1.6 0 .6-.3 1.3-.4 2.1zM164.8 107.2c1.2-.4 1.6-.2 1.7 1 0 .2.1.4.2.4.8.5.6 1.1.2 1.8.8.1 1.2.5 1.1 1.3 0 .1.2.3.3.5.1.3.3.6.3 1 0 .1-.5.3-.7.3-.7.2-1.4.3-1.2-.8 0-.1 0-.2-.1-.3-.7-.5-.6-1.1-.2-1.8-.7-.2-1.2-.5-1.1-1.3 0-.1-.1-.4-.2-.4-.7-.5-.7-1.1-.3-1.7zM140.6 257.4c-.2.8-.6 1.2-1.4 1.2-1.3.1-2.6.2-4 .3.2-.4.3-.7.5-.9h-.2c-.1-.8-.2-1.5-.3-2.5 1.8.7 3.6 1.3 5.4 1.9zM134.1 154.3c-.2.1-.3.1-.4.1-1.4.2-1.6-.1-1.2-1.6.2-.6-.2-1.4-.2-2.1 0-1.1 0-2.2.2-3.2 0-.3.5-.6.8-.9.1 0 .2.1.2.1.1 2.5.4 5 .6 7.6zM127.7 152.5c0 .7.1 1.4.2 2.4-.6.1-1.3.1-1.9.2 0-.7-.2-1.3-.1-1.9.1-.4.4-.7.5-.9v-1.7c0-.2-.2-.4-.1-.6.1-.4.1-.9.3-1.2.2-.2.9-.2 1.1 0 .3.2.3.7.4 1.1.1.3.1.6 0 .9-.1.6-.3 1.1-.4 1.7zM177.9 187.8c-.4-1.2.2-2.1-.1-3.1-.2-.6-.1-1.3-.1-2 0-.2.9-.4 1.4-.5.1 0 .4.4.5.7.1.4.1.9.1 1.3 0 .3-.1.5-.1.8v.7c0 .7.1 1.5.1 2.2 0 .1-.4.3-.6.3-.5 0-.9-.2-1.2-.4zM128.3 145.7c.4.6.6 1.3-.2 1.7-.3.2-1 0-1.2-.2-.6-.6-.2-1.1.3-1.6-.5-1-.4-1.3.5-1.9-.5-.9-.5-1.6.2-1.8.4-.1 1.1.1 1.3.3.6.8 0 1.2-.7 1.6.6.6.5 1.3-.2 1.9zM129.7 256.1c-1-.6 0-1.5-.3-2.5.6.2 1.2.2 1.4.5.3.3.3.9.4 1.4 0 .1-.2.4-.2.5.8.7.2 1.5.3 2.3 0 .3-.1.8-.3.9-.4.1-1 .2-1.4 0-.2-.1-.2-.7-.2-1 .1-.6.2-1.3.3-2.1zM169.6 295.2c.4.7.5 1.3-.3 1.8-.1.1 0 .4-.1.6-.2.4-.4.9-.7 1.1-.3.1-1-.2-1.1-.4-.1-.3.1-.8.2-1.3.1-.3.2-.5.3-.8.2-.4.4-.9.7-1.4-.2-.4-.4-1.1.4-1.5.3-.1 1 .1 1.2.4.6.5.1 1.1-.6 1.5zM125.1 204.9V202c1.5.7 2.9.7 4.1 1.7.2.2.6.2 1 .2.3 0 .7 0 1 .1v.3c-2 .2-4 .4-6.1.6zM168.3 138.1c.7-.5 1.4-.5 1.7 0 .4.6.1 1.1-.8 1.7.4.4.9.8 1.3 1.2v-.1c.5.2 1.1.3 1.4.7.2.2 0 .8 0 1.4-1.9-2-3.7-3.7-5.5-5.5.5-.4 1.1-.8 1.7-1.3.7.6-1 1.3.2 1.9zM177 187.5c-.7-.2-1.2-.3-1.6-.6-.3-.2-.4-.6-.4-1-.1-.8 0-1.5-.1-2.3-.1-.7-.1-1.1.8-1.1.3 0 .7 0 1.2-.1-.1 1.8 0 3.4.1 5.1zM144.9 318.4c1 0 1.5.3 1.5.9 0 .6-.4 1-1 1-.7 0-1-.6-.9-1.5-1.3-.1-1.6-.4-1.4-1.4-.5-.4-.9-.7-1.3-1.1 0-.1.1-.2.1-.3.6-.1 1.3-.1 2-.2v.9c.8.2 1.3.7 1 1.7zM144.5 315.7c.7.1 1.5.1 2.2.2.1 0 .3-.1.4-.2.7-.5 1.1-.3 1.2.5 0 .6.1 1.1.1 1.7 0 .3-.2.8-.4.8-.4.1-.9 0-1.1-.2-.3-.4-.7-.6-1.1-.9-.6-.4-1-1.1-1.4-1.7 0 0 .1-.1.1-.2zM163.9 108.1c.8 1.8 1.5 3.6 2.3 5.3-.1.1-.1.2-.2.3-.7-.3-1.7-.5-2.2-1-1-1.5-.9-3 .1-4.6z"/><path d="M170.8 136.3c-.5.5-.8.9-1.2 1.2-.2.1-.6-.1-.9-.2-.4-.4-.5-.9-.1-1.3s.7-.8 1.1-1.3c.6-.6 1.2-.4 1.8-.1.3.1.5.7.4 1.1.1.5-.4.7-1.1.6zM121.9 200.9c.9.3 1.4.5 2 .7.1 1-.5 1.8-.1 2.7.1.1-.3.5-.5.7-.2.1-.5.1-.8.1-.8 0-.7-.5-.6-1 0-.2.2-.4.2-.6 0-.8-.1-1.6-.2-2.6zM128.5 127.6c.3.7.3 1.4-.5 1.7-.6.2-1 0-1.2-.6-.3-.8.2-1.2.9-1.5-.3-.7-.3-1.4.5-1.7.3-.1 1 .2 1.2.5.4.9-.1 1.4-.9 1.6zM167.3 300.9c.3 1 .1 1.7-.6 1.7-.4 0-1-.3-1.2-.6-.3-.8.2-1.2 1-1.4-.3-.7-.4-1.4.5-1.7.5-.2 1 0 1.2.6.3.7-.2 1.1-.9 1.4zM127.8 257.1c.6.4 1.1 1 .5 1.6-.2.3-.9.4-1.2.3-.8-.3-.6-1-.3-1.7-.6-.4-1.1-1-.5-1.6.2-.3.9-.4 1.2-.3.8.4.7 1.1.3 1.7zM128.2 139.3c-.5-.6-.7-1.2 0-1.7.5-.4 1-.3 1.4.1.5.7.2 1.2-.4 1.7.5.6.7 1.2 0 1.7-.5.4-1 .3-1.3-.2-.6-.6-.3-1.2.3-1.6zM180.9 185.2c-.8-.7-.9-1.4-.4-1.7.3-.2 1-.3 1.3-.1.6.3.5 1-.1 1.7.7.8.9 1.4.3 1.8-.4.4-1 .4-1.4 0-.5-.7-.3-1.2.3-1.7zM180 238.4c.1-1 .1-1.8.3-2.5.1-.3.8-.5 1.2-.7.2.5.4 1 .5 1.6.1.3-.1.7 0 1.1.1.6-.3 1.2-.9 1.2-.7 0-1.1-.3-1.1-.7zM132.8 259.1c-.7 0-.7-.5-.6-1 0-.4 0-.7.1-1.1.1-.4.2-.9.5-1 .3-.2.9-.1 1.1.1.2.2.2.7.3 1.1 0 .2-.2.4-.2.6 0 1.3 0 1.4-1.2 1.3zM172.4 235.9c1.2-.1 2.4-.2 3.7-.2.3 0 .8.1.9.3.1.2.1.8-.1 1-.2.2-.7.4-1 .3-1.2-.3-2.3-.8-3.5-1.2v-.2zM177.5 237.9v-1.4c0-.3.1-.8.2-.9.4-.2.9-.2 1.4-.1.2 0 .4.7.3.8-.4.7-.3 1.3-.1 2.2-.8-.3-1.4-.5-1.8-.6zM170.3 94.4c-.4.3-.7.7-1.2.8-.6.1-1.1-.4-.9-1 .1-.4.6-.9.9-.9.4 0 .8.5 1.2.7v.4zM125.1 255.1c-.4.3-.8.7-1.2.7-.5.1-.9-.3-1-.9 0-.6.4-1.1 1-1 .4.1.8.5 1.2.8v.4zM139.6 104.8c-.4.3-.8.7-1.2.8-.6.1-1.1-.4-1-1 .1-.4.6-.9.9-.9.4 0 .8.5 1.2.7 0 .1.1.3.1.4zM171.6 301c-.4.3-.8.7-1.2.8-.6.1-1.1-.4-.9-1 .1-.4.6-.9.9-.9.4 0 .8.5 1.2.7v.4zM122.9 140.5c-.4.3-.8.8-1.2.7-.3 0-.9-.5-.9-.9-.1-.6.3-1.1.9-1 .4 0 .8.5 1.2.8v.4zM134 106.2c.2.4.7.8.7 1.2 0 .3-.6.8-.9.9-.6.1-1.1-.4-1-1 .1-.4.5-.8.8-1.2.1 0 .2.1.4.1zM174.3 287.9c.3.4.7.8.8 1.2.1.6-.4 1.1-1 .9-.4-.1-.9-.6-.9-.9 0-.4.5-.8.7-1.2h.4zM173.2 109.2c-.4.3-.8.7-1.2.8-.6.1-1.1-.4-.9-1 .1-.4.6-.9 1-.9s.8.5 1.2.7c-.1.1-.1.2-.1.4zM167.4 309.2c-.4.3-.8.7-1.2.7-.3 0-.8-.6-.9-1-.1-.6.4-1.1 1-1 .4.1.8.5 1.1.8v.5zM132.4 102.5c.2.4.7.9.6 1.2 0 .3-.6.8-1 .9-.6.1-1.1-.4-.9-1 .1-.4.6-.7.9-1.1h.4zM169.7 112.9c-.3-.4-.7-.8-.7-1.2 0-.3.5-.9.9-1 .6-.1 1.1.3 1 .9 0 .4-.5.8-.7 1.2-.2.1-.3.1-.5.1zM143.4 320c-.4.2-.8.7-1.2.7-.5.1-.9-.4-.9-1s.4-1.1 1-1c.4.1.8.5 1.1.8.1.2.1.3 0 .5zM170 102.4c.3.4.7.8.7 1.2.1.6-.4 1.1-1 .9-.4-.1-.9-.6-.9-1s.5-.8.7-1.2c.2.1.4.1.5.1zM136.1 104.3c-.4.3-.7.7-1.1.8-.6.1-1.1-.4-1-1 .1-.4.6-.9.9-.9.4 0 .8.4 1.2.7v.4zM184.5 184.4c-.9 0-1.3-.4-1.3-1s.4-1.1 1-1c.4.1.9.6.9.9.1.4-.4.8-.6 1.1zM123.3 264.5c-.4.3-.8.7-1.2.7-.6.1-1.1-.5-.9-1 .1-.4.6-.9 1-.9s.8.5 1.1.8c.1.1 0 .3 0 .4zM187.2 185.1c-.2-.3-.6-.7-.6-1.1-.1-.6.5-1.1 1-.9.4.1.8.6.9 1 .1.6-.4 1-1.3 1zM122.5 260.5c-.1.9-.4 1.3-1.1 1.3-.6 0-1-.4-1-.9 0-.6.4-1.1 1-1 .4 0 .8.4 1.1.6zM117.3 204c-.9-.1-1.3-.4-1.3-1s.4-1 .9-1c.6 0 1.1.4 1 1 .1.4-.4.8-.6 1zM126 141c-.1.9-.4 1.3-1 1.3s-1-.3-1-.9c0-.6.4-1.1 1-1 .4 0 .8.4 1 .6zM121.8 256.9c-.3.2-.7.6-1.1.7-.6.1-1-.4-1-1s.4-.9 1-1c.7 0 1 .4 1.1 1.3zM126.7 132c-.2-.4-.7-.9-.6-1.2.1-.3.6-.8 1-.8.6-.1 1 .5.9 1.1-.1.4-.6.7-.9 1.1-.1-.2-.2-.2-.4-.2zM126 137c-.3-.4-.7-.8-.7-1.2-.1-.6.4-.9.9-.9.6 0 1.1.4 1 1-.1.4-.5.8-.8 1.2-.2-.1-.3-.1-.4-.1zM129.7 134.3c.9.1 1.3.4 1.3 1.1 0 .6-.4.9-1 1-.6 0-1.1-.4-1-1 0-.5.5-.9.7-1.1zM130.3 131.4c.3.4.7.7.8 1.2.1.6-.4 1.1-1 1-.4-.1-.9-.6-.9-.9 0-.4.4-.8.7-1.2.1-.1.3-.1.4-.1zM131.8 129.9c-.1.9-.5 1.4-1.1 1.2-.4-.1-.8-.6-.9-1-.1-.6.4-1.1 1-1 .4.2.8.6 1 .8zM130.4 107.8c.3.4.7.8.7 1.2.1.6-.4 1-1 .9-.6 0-1-.4-.9-1 .1-.4.5-.8.8-1.2.2.1.3.1.4.1zM137.5 105.9c.3.4.8.8.7 1.2 0 .3-.5.9-.9.9-.6.1-1.1-.3-1-.9.1-.4.5-.8.8-1.2h.4zM145.5 323.9c-.3-.4-.7-.8-.7-1.2 0-.3.6-.8.9-.9.6-.1 1.1.4 1 1-.1.4-.5.8-.8 1.1h-.4zM175.2 106.8c-.3.2-.7.6-1.1.6-.6.1-1-.4-.9-1 0-.6.4-.9 1-.9s.9.4 1 1.3zM175.8 292.1c.9.1 1.3.5 1.2 1.1 0 .6-.4.9-1 .9s-1.1-.4-1-1c.1-.4.6-.7.8-1zM169.1 302.2c.3.4.7.8.7 1.2.1.6-.4 1-1 1s-1-.4-.9-1c.1-.4.5-.8.8-1.2h.4zM166.5 305.7c.4-.2.9-.7 1.2-.6.3 0 .8.6.9 1 .1.6-.4 1.1-1 .9-.4-.1-.7-.6-1.1-.9v-.4zM169.5 108.3c.2.3.6.6.7 1 .1.6-.4 1-1 1s-.9-.4-1-.9c0-.6.4-.9 1.3-1.1zM167.1 311.9c.4-.3.8-.7 1.2-.7.6-.1 1 .4.9 1 0 .6-.4 1-1 .9-.4-.1-.8-.5-1.2-.8 0-.1 0-.3.1-.4zM161.9 314.1c.1-.9.4-1.3 1.1-1.3.6 0 .9.4 1 1 0 .6-.4 1.1-1 1-.4 0-.8-.5-1.1-.7zM166.6 315.6c-.1.9-.4 1.3-1 1.3s-1-.3-1-.9c0-.6.3-1.1.9-1 .4 0 .8.4 1.1.6zM160.3 316.5c.1-.9.4-1.3 1-1.3s1.1.4 1 1c-.1.4-.6.9-.9.9-.4.1-.8-.4-1.1-.6zM172.2 98.4c-.4.3-.8.7-1.2.8-.6.1-1-.4-1-1s.4-1 1-.9c.4.1.8.5 1.2.7v.4zM160.3 318.8c-.3.2-.7.6-1.1.7-.6.1-1-.4-.9-1.1 0-.6.4-.9 1-.9.7 0 1 .4 1 1.3zM163.2 317.9c.3.4.7.8.7 1.2.1.6-.4 1.1-1 .9-.4-.1-.9-.6-.9-1s.5-.8.8-1.2c.1.1.2.1.4.1zM167.5 101.2c.2-.9.5-1.2 1.2-1.2.6.1.9.4.9 1s-.5 1.1-1.1.9c-.4 0-.7-.4-1-.7zM173.6 102.3c-.3.2-.7.6-1.1.7-.6.1-1-.4-1-1s.4-.9 1-.9c.7-.1 1 .2 1.1 1.2zM148.7 321.3c-.4.3-.7.7-1.1.8-.6.1-1.1-.4-1-1 .1-.4.6-.9.9-1 .4 0 .8.4 1.2.7v.5zM136.6 99.7c.2.4.7.8.7 1.2.1.6-.4 1-1 .9-.6 0-1-.4-.9-1 .1-.4.5-.8.8-1.2.1.1.2.1.4.1zM132.3 109.8c.9 0 1.3.4 1.3 1s-.4 1.1-1 1c-.4-.1-.9-.6-1-.9.1-.4.5-.9.7-1.1zM124.3 147.4c.3.4.7.8.8 1.2.1.6-.4 1-1 1s-1-.4-.9-1c.1-.4.5-.8.7-1.2h.4zM122.7 137.6c-.9-.1-1.3-.4-1.3-1.1 0-.6.4-.9 1-1 .6 0 1.1.4 1 1 0 .5-.5.9-.7 1.1zM174.5 291.7c-.1.9-.5 1.4-1.1 1.3-.4-.1-.9-.6-.9-.9-.1-.6.4-1.1 1-1 .4 0 .7.4 1 .6zM174 111.4c-.1.9-.4 1.3-1 1.3s-1-.4-1-1 .4-1 1-.9c.3 0 .7.5 1 .6zM123.5 132.3c.3.4.7.7.8 1.2.1.6-.4 1.1-1 1-.4-.1-.9-.6-.9-.9 0-.4.4-.8.7-1.2.1-.1.3-.1.4-.1zM134.5 97.3c.3.4.8.8.8 1.2 0 .3-.5.9-.9 1-.6.2-1.1-.3-1-.9 0-.4.5-.8.7-1.2.1-.1.2-.1.4-.1zM171.2 294.6c.4-.3.8-.7 1.2-.7.6-.1 1 .4 1 1s-.4 1-1 .9c-.4-.1-.8-.5-1.2-.8v-.4zM175.8 297.6c-.1.9-.5 1.3-1.1 1.3-.6 0-.9-.4-1-1 0-.6.4-1.1 1-1 .5.1.8.5 1.1.7zM169.9 106.6c.1-.9.4-1.3 1-1.3s1 .3 1 .9c0 .6-.4 1.1-.9 1-.5 0-.8-.4-1.1-.6zM184.9 236.5c-.3.2-.6.6-1.1.7-.6.1-1.1-.4-1-1 .1-.4.5-.9.9-.9.8-.2 1.1.3 1.2 1.2zM136.6 110.6c-.9-.1-1.3-.4-1.3-1s.4-1.1 1-.9c.4.1.9.6.9.9.1.4-.4.8-.6 1zM122.9 151c0-.7.4-1.1 1-1.1s1.1.4 1 1c-.1.4-.5.9-.9 1-.7.2-1-.3-1.1-.9zM186.7 238.9c.3.4.7.8.7 1.2.1.6-.3.9-.9 1-.6 0-1.1-.4-1-1 .1-.4.5-.8.8-1.2h.4zM124.7 147c-.9-.1-1.4-.5-1.2-1.1.1-.4.6-.9.9-.9.6-.1 1.1.4 1 1 0 .4-.5.8-.7 1zM164.5 312.3c-.2-.3-.6-.7-.7-1.1-.1-.6.4-1 1-1s.9.4.9 1c.1.7-.3 1-1.2 1.1zM125.3 125.4c.3.4.7.7.8 1.2.1.6-.4 1.1-1 1-.4-.1-.9-.6-.9-.9 0-.4.4-.8.7-1.2.1-.1.2-.1.4-.1zM123.3 129.6c.4-.3.8-.7 1.2-.8.6-.1 1.1.4.9 1-.1.4-.6.9-1 .9s-.8-.5-1.2-.7c.1-.1.1-.3.1-.4zM130.6 127.4c.4-.3.8-.8 1.1-.7.4.1.9.6 1 1 .1.6-.4 1.1-1 1-.4-.1-.8-.5-1.1-.8v-.5zM187.1 189.1c-.2-.3-.6-.7-.6-1.1 0-.3.6-.8.9-.9.6-.1 1 .3 1 1 .1.7-.3 1-1.3 1zM121.4 153.3c-.3.2-.6.6-1 .7-.6.1-1-.3-1-1 0-.6.3-1 .9-1 .6 0 1 .4 1.1 1.3zM183.9 187.3c-.3-.4-.7-.8-.7-1.2 0-.3.5-.9.9-.9.6-.1 1.1.4 1 .9-.1.4-.5.8-.8 1.2h-.4zM167 103.8c-.2 0-.5.1-.7.1-.6 0-1.1-.5-1-1.1.1-.6.5-1 1.1-.9.6.1 1 .6.8 1.3 0 .2-.1.4-.2.6zM139.7 101.4c.3.4.7.7.8 1.2.1.5-.3 1-.9 1-.6 0-1.1-.3-1-.9 0-.4.5-.8.7-1.2.1-.1.2-.1.4-.1zM128.2 253.6c-.1.9-.4 1.3-1 1.3s-1.1-.4-1-1c.1-.4.6-.9.9-.9.4 0 .9.4 1.1.6zM178.5 288.7c-.1.9-.5 1.3-1.1 1.2-.6 0-.9-.4-.9-1s.4-1.1 1-1c.3.1.7.6 1 .8zM134.3 111.9c.4-.3.8-.8 1.1-.8.3 0 .9.5 1 .9.2.6-.3 1.1-.9 1-.4 0-.8-.5-1.2-.7v-.4zM175.9 109.6c.3.4.7.8.7 1.2 0 .3-.5.9-.9.9-.6.1-1.1-.4-1-.9.1-.4.5-.8.8-1.2h.4zM123 270.1c-.2-.3-.6-.6-.7-1-.1-.6.4-1.1 1-.9.4.1.9.6.9.9.2.6-.3.9-1.2 1zM138.1 93.4c-.4.3-.8.7-1.2.7-.3 0-.8-.6-.9-.9-.1-.6.3-1.1 1-1 .4.1.8.5 1.2.8-.1.1-.1.3-.1.4zM137.8 99c-.3-.4-.7-.8-.8-1.2-.1-.6.4-1 1-1s1 .4.9 1c-.1.4-.5.8-.7 1.2h-.4zM173.7 303.4c-.4.3-.8.7-1.2.7-.6.1-1.1-.4-.9-1 .1-.4.6-.9 1-.9s.8.5 1.2.7c-.1.2-.1.4-.1.5zM167.5 99.7c-.3-.4-.7-.8-.7-1.2-.1-.6.4-1 1-.9.6 0 1 .4.9 1-.1.4-.5.8-.8 1.2-.1-.1-.3-.1-.4-.1zM166.5 303.9c-.4.2-.8.6-1.2.7-.6.1-.9-.4-.9-1s.4-1.1 1-1c.4.1.8.5 1.1.8v.5zM125.7 274.1c-.4.3-.8.8-1.1.8-.3 0-.9-.5-1-.9-.2-.6.3-1.1.9-1 .4 0 .8.5 1.2.7v.4zM162.4 309.8c-.3-.4-.7-.7-.8-1.2-.1-.6.4-1.1 1-1 .4.1.9.6.9.9 0 .4-.4.8-.7 1.2-.1.1-.2.1-.4.1zM169.4 106.9c-.1.9-.4 1.3-1 1.3s-1-.4-1-1 .4-1 .9-1c.5.1.8.5 1.1.7zM122.8 155c-.3-.4-.7-.7-.8-1.2-.1-.6.4-1 1-1s1 .4.9.9c-.1.4-.5.8-.7 1.2-.1.1-.2.1-.4.1zM185.3 188.5c-.1.9-.4 1.3-1.1 1.3-.6 0-1.1-.5-.9-1 .1-.4.6-.9 1-.9.3-.1.7.4 1 .6zM170.2 290.4c-.3-.4-.7-.7-.8-1.2-.1-.6.4-1 1-1s1 .4.9.9c-.1.4-.5.8-.7 1.2-.1.1-.2.1-.4.1zM120.3 145.3c.1-.9.5-1.3 1.1-1.2.6 0 .9.4.9 1s-.4 1.1-1 1c-.3-.2-.7-.6-1-.8zM118.9 201.8c0-.6.3-1 1-1 .6 0 1.1.4 1 1-.1.4-.5.9-.9 1-.6 0-1-.4-1.1-1zM125.3 139.5c-.2-.3-.6-.6-.7-1-.1-.6.3-1 1-1 .6 0 1 .3 1 .9 0 .6-.4.9-1.3 1.1zM171.1 292c-.3.2-.6.6-1 .7-.6.1-1-.3-1-1 0-.6.4-1 .9-1 .6 0 1 .4 1.1 1.3z"/><path d="M172.5 137.2c-.1.9-.4 1.3-1.1 1.3-.6 0-.9-.4-1-1 0-.6.4-1.1 1-1 .5.1.9.5 1.1.7zM125.4 133.4c.1-.9.4-1.4 1-1.2.4.1.9.5 1 .9.1.6-.3 1.1-.9 1-.5-.1-.9-.5-1.1-.7zM188 236.5c-.3.2-.7.6-1.1.7-.6.1-1.1-.4-.9-1 .1-.4.6-.8 1-.9.6-.2.9.3 1 1.2zM171.4 307.7c-.1.9-.5 1.4-1.1 1.2-.4-.1-.8-.6-.9-.9-.1-.6.4-1.1 1-1 .4 0 .8.5 1 .7zM159.7 323c-.6-.1-1.1-.4-.9-1 .1-.4.6-.9 1-.9.6-.1 1 .3 1 1-.1.6-.5.9-1.1.9zM123.4 257.8c.1-.9.4-1.4 1-1.3.4.1.9.5 1 .9.1.6-.3 1.1-.9 1-.5 0-.8-.4-1.1-.6zM121.2 147.3c.2.4.7.8.7 1.2 0 .3-.6.8-.9.9-.6.1-1.1-.4-1-1 .1-.4.5-.8.8-1.1.1-.1.3-.1.4 0zM172.7 297.7c-.1.9-.4 1.3-1 1.3s-1-.3-1-.9c0-.6.3-1.1.9-1.1.4.1.8.6 1.1.7zM167 103.8c.2 0 .4 0 .5.2.3.3.7.7.6 1 0 .3-.5.8-.8.9-.3.1-.9-.2-1-.5-.1-.3.1-.8.2-1.2.1-.2.3-.3.5-.4zM164.1 305.1c.3.4.7.8.7 1.2.1.6-.5 1.1-1 .9-.4-.1-.9-.6-.9-1s.5-.8.8-1.1h.4zM121.2 252.6c-.3.2-.7.6-1.1.7-.6.1-1.1-.4-.9-1 .1-.4.6-.8 1-.9.6-.2 1 .2 1 1.2zM171 138.7c.9.1 1.3.4 1.3 1.1 0 .6-.4.9-1 .9s-1.1-.4-1-1c.1-.4.6-.7.7-1zM124.4 142.5c.9.1 1.3.4 1.3 1s-.4 1.1-1 1c-.4-.1-.9-.6-.9-.9-.1-.4.4-.8.6-1.1zM183.8 237.7c.3.4.7.7.8 1.2.1.6-.4 1.1-1 1-.4-.1-.9-.6-1-.9 0-.4.4-.8.7-1.2.2-.1.3-.1.5-.1zM126.5 278.4c.1.7-.3 1-.8 1-.6 0-1-.4-1-1s.4-1 1-1c.7 0 .9.5.8 1zM119.7 205.4c-.6.1-.8-.3-.8-.8 0-.6.5-1.1 1-.9.4.1.9.6.9 1 .2.8-.5.7-1.1.7zM122.4 252.4c.5-.4.8-.9 1-.8.5.2 1.4 0 1.3.9 0 .3-.6.9-1 .9s-.7-.5-1.3-1zM138.7 316.4c.9-.1 1.5-.1 2.4-.2-.2.5-.3 1-.5 1.2-.2.2-.8.3-1 .1-.4-.2-.5-.6-.9-1.1zM180 188.5c.4-.4.7-.8.9-.8.4 0 .9.2 1.1.4.2.2 0 .6.1 1h-.9c-.3-.1-.6-.3-1.2-.6zM124.7 261.6c-.3-.4-.7-.7-.8-1.1-.1-.3.2-.8.5-.9.3-.2.8 0 1.3 0-.4.7-.6 1.2-1 2zM131.4 154.6c-.7.1-1.3.1-1.9.1-.1-.8.2-1.3.9-1.3s1.1.4 1 1.2zM141.1 101.3c-.7.2-1.2 0-1.4-.5-.2-.6.1-1.1.8-1.4.3.6.4 1.2.6 1.9zM164.8 107.2c-.2-.1-.4-.1-.7-.2.2-.6.4-1.2.5-1.8 1.1.4 1.1 1 .2 2zM126.9 281.8c.1.6.1 1.2.2 1.8-.1.1-.2.1-.3.2-.3-.3-.7-.6-.7-1s.3-.7.5-1.1c0 0 .2 0 .3.1zM158.9 313.9c.2.3.5.7.5 1 0 .3-.4.7-.6 1-.1 0-.2-.1-.3-.1 0-.6.1-1.1.1-1.7.1-.1.2-.2.3-.2zM162.2 113c.2-.5.3-1 .6-1.7.3.7.5 1.2.7 1.7h-1.3zM116.4 198.9c.5.2 1 .4 1.6.6v.3c-.3.1-.7.2-1 .1-.3-.1-.5-.5-.8-.7 0-.1.1-.2.2-.3zM139.7 95.9c-1.1-.5-1.2-.9-.5-1.9.2.7.3 1.2.5 1.9zM141.2 257.6c.2 0 .4 0 .5.1.4.1.7.2 1.2.4-1.4.4-1.7.4-1.7-.5z"/><path fill="#FFF" d="M154 143c-2.4-3.3-5.5-5.7-8.9-7.7-1-.6-2-1.3-3-2-4-2.9-5.2-6.6-3.2-11.9 2.2-5.8 8.7-6.7 12.5-1.8.5.7 1 1.5 1.4 2.2.3.5.5 1.3 1.2 1.1.4-.1.9-.6 1.1-1.1.9-1.6 1.9-3 3.5-4 3.5-2.2 7.8-1.2 9.9 2.4 2 3.6 2.7 9.2-2.4 12.8-.6.4-1.2.9-1.8 1.2-3.9 2.3-7.5 5-10.3 8.8zm-13.1-19.1c.4.2.7.4 1 .5.1 0 .2-.3.4-.4-.2-.2-.5-.3-.7-.5-.2-.3-.4-.6-.5-.9.1 0 .1-.1.2-.1l.2.2c.2.2.3.4.5.5.1 0 .5-.2.5-.3 0-.2-.2-.5-.3-.7l-.6-1.2c.1-.1.2-.1.3-.2.1.2.3.4.4.5.2.1.5.2.7.3 0-.3.1-.5.1-.8 0-.1-.2-.1-.3-.2-.1-.2-.2-.4-.1-.6 0-.1.3-.3.4-.2.7.5 1-.1 1.1-.5h1.2c.2.4.3 1 .5 1 1.2.1 0-1.1.4-1.2.6.2 1 .3 1.4.4.1 0 .3.1.4.2.3.3.6.7.9 1.1-.1 0-.4-.1-.5 0-.2.1-.2.4-.4.6.2.1.5.3.6.3.4-.1.9-.3 1.5-.6 0-.1 0-.5-.2-.6-.8-.7-1.7-1.4-2.6-1.8-3.1-1.4-6.3.7-7.1 2.9-1 2.7-.7 5.6 1.2 7.8 1.8 2.1 4.1 3.8 6.2 5.6.9.8 2 1.6 3 2.3.2.2.5.2.8.3-.1-.3-.1-.6-.3-.8-.3-.5-.9-1-.5-1.8.1-.1-.1-.4-.2-.6-.1-.1-.4-.1-.5 0-.1.2-.2.4-.2.6 0 .1.1.3.2.5-.1 0-.1.1-.2.1-.1-.1-.3-.3-.3-.4.1-.8-.2-.9-.9-.6-.1.1-.4-.1-.5-.2 0-.1.1-.1.1-.2.2 0 .5.1.7 0 .2-.1.3-.4.3-.6 0-.1-.4-.3-.5-.3-.5.1-.9.3-1.4.4-.1 0-.2-.2-.2-.2.3-.3.7-.5.7-.8 0-.6-.5-.5-.9-.3-.3.1-.6.2-.9.1-.2 0-.3-.2-.5-.3.3-.1.6.1.7 0 .2-.1.3-.4.5-.6-.2-.1-.4-.4-.6-.4-.5 0-1 .1-1.5.2.1-.2.4-.2.5-.3.2-.2.3-.4.4-.6-.2-.1-.4-.3-.6-.3-.6 0-.8-.1-.9-.8 0-.2-.4-.4-.6-.6-.2-.1-.4 0-.7 0 .6-.9.6-.9-.6-1.4l.3-.9c-.3-.1-.6-.1-.8-.2-.3-.1-.5-.3-1-.6.3-.1.5-.2.6-.2.4.3.8.6 1 0 .2-.6-.3-.6-.7-.6-.5-.2-.9-.5-.6-1zm24.5-2.5c.4 0 .7.1.9.1 0-.3 0-.6-.1-.9-1.8-2.7-5.5-3-8-.7-1.8 1.6-2.6 3.5-2.7 6 .5-.2 1-.3 1.3-.6.8-.6.9-1.3.4-2.1.4 0 .6 0 .9-.1 0-.4-.1-.8-.1-1.2.7.8.9-.4 1.2-.3 1.2.2.4-1 .8-1.2.3.2.6.3.9.5.2-.3.3-.6.5-.9.3.5.7 1.2 1.2.1 0-.1.4-.1.4-.1.3 1.3.9.5 1.4.2.1-.1.3-.1.7-.1-.2.3-.4.4-.5.6-.1.2-.3.4-.4.6 0 .1.2.4.3.3.5 0 .8-.1.9-.2zm-19.9-1.4c-.4-.2-.6-.5-.8-.5-.2 0-.3.3-.5.5.2.1.3.4.5.4.2.1.4-.1.8-.4zm1.9-.4c-.2.3-.5.6-.5.7 0 .2.3.4.5.4.1 0 .4-.3.4-.4 0-.1-.2-.3-.4-.7zM204.5 176l-24 2.4c-.8-8.2-1.7-16.3-2.5-24.5 8-.8 15.9-1.5 24-2.3.8 8.2 1.6 16.2 2.5 24.4zM180 155.5c.7 7 1.3 13.8 1.9 20.8 7-.7 13.8-1.3 20.8-1.9-.7-7-1.3-13.9-2-20.8-6.9.6-13.8 1.3-20.7 1.9zM175.2 127.7c3.1-.3 6.1-.7 9.1-1 .2 0 .5.2.7.3 2.5 2 5.4 2.9 8.6 2 .8-.2 1.6-.8 2.3-1.4.8-.6 1.3-1.5 2.1-2.2.2-.2.7-.3 1.2-.5.9 8.3 1.7 16.4 2.6 24.6-8 .8-16 1.5-24 2.3-.9-8-1.8-16-2.6-24.1zm22.8 0h-.2c-.2.3-.5.5-.7.8-1.5 1.5-3.3 2.3-5.5 2.4-2.6 0-4.9-.8-7-2.1-.2-.1-.4-.3-.6-.3-2.2.2-4.5.4-6.8.6.7 7 1.3 13.8 1.9 20.8 7-.7 13.8-1.3 20.8-1.9-.6-6.9-1.2-13.6-1.9-20.3zM138.9 117.5c-1.8 2.2-2.6 4.6-2.9 7.4-.4-.3-.7-.4-1-.6-2.6-1.8-5.3-3.4-8.5-4-1.6-.3-3.2-.4-4.7.3-.8.3-1.3.8-1.3 1.8-.1 2.9-2.4 5.2-5.3 5.4-3 .2-5.6-1.9-6.1-4.7-.5-2.9 1.3-5.6 4.1-6.5 2.5-.8 5-.8 7.6-.8 6.1-.1 12 .6 18.1 1.7zm-6.4 1c-.3-.2-.7-.6-1.1-.7-2.1-.3-4.2-.5-6.2-.7-3.6-.3-7.1.3-10.6 1-.6.1-1.1.4-1.6.7-1.2.8-1.8 2-1.7 3.4.1 1.5.9 2.7 2.3 3.3 1.4.6 3.2.3 4.2-.8 1.2-1.2 1.5-2.7.8-4.2-.2-.5-.3-.9.2-1.2.3-.2.7-.4.9-.6.2.1.6.4.8.4.3-.1.4-.6.5-.8.2.3.3.6.5.8.1.1.4-.2.7-.4.6.5.6.5 1.1-.1.2.1.5.3.6.3.3-.3.5-.6.7-.9.3.3.5.7.8 1 .2-.4.4-.7.6-1l.6.9c.2-.3.5-.5.8-.8.3 1.9 1 .7 1.5 0 .1.2.2.2.2.3-.1.4-.2.8.4.9.2 0 .3-.5.5-.7.1-.1.2-.1.3-.2.1.4.2.7.3.9 0 .1.3.1.5 0 .3-.3.8-.5 1.4-.8z"/><path fill="#FFF" d="M160.4 139.3c.5-.4.9-.7 1.2-.9l7.2 7.2c-5.3 5.2-10.7 10.5-16 15.8-5-5-10.2-10.1-15.3-15.3 2.6-2.6 5.4-5.3 8.1-8.1.4.3.9.6 1.4.9-.2.3-.4.5-.6.7-1.8 1.9-3.5 3.9-5.3 5.8-.5.5-.5.8 0 1.3 3.7 3.9 7.4 7.7 11 11.6.5.5.8.5 1.3 0 4-4 8-8 12.1-12 .6-.6.5-1 0-1.5-1.7-1.7-3.3-3.6-5.1-5.5zM171.8 123.5c-.4-2.4-1.3-4.5-3-6.2.2-.1.4-.2.5-.2 6.3-1 12.6-1.7 19-1.3 1.5.1 2.9.4 4.3.7 2.8.8 4.5 3.7 3.9 6.5-.5 2.9-3.1 4.8-6.2 4.6-2.8-.2-5.1-2.6-5.2-5.4 0-1-.5-1.5-1.3-1.8-1.8-.8-3.7-.7-5.5-.1-1.9.7-3.8 1.7-5.6 2.5-.2.3-.5.5-.9.7zm7.9-5.7c.4.2.9 0 1 .6 0 .1.4.2.5.2.1 0 .3-.2.3-.4s-.1-.4-.3-.5c-.1-.1-.3-.1-.5-.1 0-.1.1-.1.1-.2.3.1.7.1.8.3.5.8.9 1.5 1.3-.1 0-.1.3-.1.3-.1.1-.2.3-.4.2-.5-.1-.1-.3-.3-.5-.3-1 0-1.9.2-2.9.1-2.7-.3-5.3.4-7.9.7-.5.1-1.1.2-1.7.3.5 1.1.9 2 1.4 3.2.6-1.2 2.3-1.2 2.2-2.8.1.3 0 .5 0 .8 0 .2 0 .4.1.6.1.1.4.1.5.1.1-.1.3-.3.3-.5.1-.4.1-.8.2-1.3h.3v.6c0 .3-.1.5-.1.8 0 .1.4.2.4.1.2-.2.2-.5.4-.7.1-.2.3-.4.4-.6.1.2.3.3.4.5.1.2.3.4.5.6.1 0 .4-.1.4-.2 0-.2-.1-.5-.1-.7 0-.2-.1-.4-.1-.6.1 0 .1-.1.2-.1.5.6 1 1 1.5.1.3 0 .4.1.4.1l-.2.2c-.1.2-.2.5-.4.7.2.1.5.1.7.2v-.9c.1 0 0-.1-.1-.2zm7.3 4.1c0 2.1 1.7 3.8 3.8 3.8 2.1 0 3.8-1.7 3.8-3.8 0-2.1-1.7-3.8-3.8-3.8-2.1 0-3.8 1.7-3.8 3.8zM158 100.7c-1.1-2.6-2.3-5.2-3.4-7.8-.1-.2-.1-.5 0-.7 1.3-2.5 2.6-4.9 4-7.5.2.3.3.4.4.6 1.1 2.2 2.1 4.4 3.1 6.7.1.3.1.7 0 .9-1.3 2.6-2.7 5.1-4 7.7 0 0-.1 0-.1.1zM149.7 100.8c-1.3-2.4-2.4-4.7-3.7-7-.6-1-.7-1.8-.1-2.8.9-1.8 1.8-3.7 2.6-5.5.1-.2.3-.4.5-.8 1 1.9 1.9 3.7 3 5.3 1.1 1.7 1.3 3.2.2 5-.6.9-.9 1.9-1.3 2.9-.4.9-.8 1.8-1.2 2.9zM153.8 76.2c1.5 2.5 2.8 4.7 4.1 7 .1.2.1.5 0 .7-1.3 2.4-2.7 4.8-4.1 7.2-.1-.3-.3-.5-.4-.8-1.2-2.1-2.3-4.1-3.5-6.2-.3-.5-.4-.9-.1-1.4 1.3-2 2.6-4.1 4-6.5zM153.9 93.8c.9 2.2 1.7 4.3 2.7 6.3.7 1.4.6 2.6 0 4.1-1.1 2.2-1.8 4.6-2.7 7-.1-.1-.2-.2-.2-.3-1-2.7-2.1-5.4-3.1-8.1-.1-.3-.2-.7-.1-.9 1-2.6 2.1-5.2 3.2-7.7-.1-.2 0-.2.2-.4zM148.8 82.4l-4.2-6c-.1-.1-.1-.5 0-.6 1.3-2.2 2.6-4.3 4-6.6 1.2 1.6 2.3 3 3.3 4.4 1.3 1.7 1.2 1.7.1 3.6-1.1 1.7-2.1 3.5-3.2 5.2zM159 69.2c1.4 2.4 2.7 4.5 4 6.6.1.2.1.5 0 .7-1.4 2-2.8 3.9-4.2 5.9l-1.2-2.1c-.9-1.5-1.8-2.9-2.7-4.4-.1-.2-.3-.6-.2-.8 1.3-1.9 2.7-3.8 4.3-5.9zM144.5 91.3c-1.2-2.6-3.5-4.3-3.7-7.1 0-.3-.1-.7 0-1 .9-2 1.9-4 3-6.1.9 1.3 1.8 2.5 2.6 3.6.6.9 1.6 1.8 1.7 2.8.1.9-.8 1.9-1.3 2.9-.8 1.6-1.5 3.2-2.3 4.9zM153.8 74.4c-1.5-2-3-4-4.5-6.1 1.5-1.9 2.9-3.9 4.6-6 1.5 2 2.9 3.9 4.3 5.9.1.1 0 .5-.1.6-1.5 1.9-2.9 3.7-4.3 5.6zM163.1 91.2c-.9-1.9-1.5-3.7-2.6-5.3-1.2-1.8-1-3.1.3-4.7 1-1.2 1.9-2.6 2.9-4.1.5.9.8 1.7 1.3 2.4 1.2 1.9 1.3 3.7.8 5.9-.4 2.3-1.6 3.9-2.7 5.8zM143.4 63.3c1.5 1.7 2.9 3.3 4.2 4.9.1.1.1.5.1.6-1.3 2.1-2.7 4.2-4 6.4-1.4-1.7-2.8-3.3-4.2-4.9-.1-.1-.1-.5 0-.6 1.3-2.1 2.5-4.2 3.9-6.4zM168.3 69.9c-1.5 1.8-2.9 3.5-4.4 5.3-1.4-2.2-2.8-4.5-4.3-6.8 1.4-1.6 2.9-3.3 4.5-5.1 1.5 2.3 2.9 4.5 4.2 6.6zM144 62.4c1.5-2 3-3.9 4.6-6 1.6 1.8 3.1 3.4 4.5 5-1.6 2-3 4-4.6 6-1.4-1.5-2.9-3.2-4.5-5zM159 56.5c1.5 2 2.9 3.8 4.2 5.7.1.2.1.6-.1.7-1.4 1.6-2.8 3.1-4.2 4.6-1.5-2-3-3.9-4.6-6 1.7-1.6 3.2-3.3 4.7-5zM147.8 55.7c-1.6 2-3 4-4.5 5.9-1.5-1.5-3-2.9-4.6-4.4 1.5-1.9 3.1-3.8 4.7-5.8 1.4 1.5 2.9 2.9 4.4 4.3zM159.8 55.7c1.5-1.4 3-2.8 4.5-4.3 1.3 1.7 2.7 3.2 3.8 4.9.4.6.5 1.3-.2 2-1.2 1.1-2.2 2.4-3.4 3.7-1.7-2.3-3.2-4.2-4.7-6.3zM153.8 50.7c1.6 1.7 3 3.4 4.5 5-1.6 1.7-3 3.4-4.5 5-1.5-1.7-3-3.3-4.6-5 1.5-1.7 3-3.3 4.6-5zM158.9 45.8c1.6 1.7 3.1 3.3 4.7 4.9-1.5 1.5-3 2.8-4.5 4.3-1.5-1.6-3-3.3-4.6-5 1.5-1.4 2.9-2.8 4.4-4.2zM144 50.7c1.5-1.6 3.1-3.2 4.7-4.9 1.5 1.4 2.9 2.8 4.4 4.2-1.5 1.7-3 3.3-4.6 5-1.5-1.5-3-2.9-4.5-4.3zM150 103.9c1 3 2.1 5.9 3.1 8.9.1.2.1.4 0 .5-.3 1.3-.7 2.6-1.1 3.9-.8-.6-1.6-1.1-2.4-1.6-.2-.1-.3-.3-.3-.5l-.3-.9c-1.4-2.6-1.2-5.3-.1-7.9.3-.7.5-1.5.7-2.3.2-.1.3-.1.4-.1zM157.9 103.7c.6 1.9 1.1 3.6 1.5 5.3.1.3-.1.6-.2.9-.5 1.7-1.2 3.3-1.6 5-.3 1.1-.9 2-2 2.6-.4-1.4-.8-2.9-1.2-4.3 0-.2 0-.4.1-.6 1-2.8 2.1-5.6 3.1-8.4 0-.1.1-.2.3-.5zM158.2 45c-1.5 1.4-2.9 2.8-4.4 4.2-1.4-1.4-2.9-2.7-4.4-4.1 1.4-1.3 2.9-2.6 4.4-4 1.5 1.3 2.9 2.6 4.4 3.9zM147 108.2c-1.1-3.8-2.3-7.6-3.2-11.5-.2-.9.4-1.9.7-3.1.3.4.4.6.5.7 1.2 2.4 2.5 4.8 3.7 7.3.2.4.2.9.1 1.3-.5 1.7-1.1 3.5-1.6 5.2 0 .1-.1.1-.2.1zM162.8 93.6c.6 1 .8 1.7.5 2.6-1 3.4-2 6.7-2.9 10.1-.1.2-.2.4-.3.8-.5-1.7-1-3.2-1.5-4.7-.1-.2 0-.4.1-.6 1.3-2.6 2.6-5.3 4.1-8.2zM138.4 58.4c1.4 1.5 2.7 3 4 4.5-1.2 1.8-2.5 3.9-3.8 6h-.2V58.4zM147.9 45.1c-1.6 1.7-3.1 3.3-4.7 4.9-.8-.7-1.5-1.3-2.3-2 1-2.1 2.4-3.8 4.4-5.2.8.8 1.6 1.5 2.6 2.3zM140.2 81.5l-1.5-10.2c.1 0 .2-.1.3-.1.8 1 1.6 1.9 2.5 2.9l1.2 1.5c.5.5.5 1 .1 1.6-.8 1.4-1.5 2.9-2.3 4.4-.2-.1-.3-.1-.3-.1zM159.7 45.1c.5-.4.9-.8 1.3-1.2 1-.9 1.1-.9 2 .1 1 1.2 1.9 2.5 2.8 3.8.3.4.3.8-.2 1.1-.4.3-.8.7-1.3 1.1-1.4-1.6-3-3.2-4.6-4.9zM165 62.8c1.2-1.2 2.2-2.4 3.5-3.7v8.8c-.1 0-.1 0-.2.1-1.1-1.8-2.2-3.6-3.3-5.2zM166.7 80.4l-2.1-3.9c-.1-.1-.1-.3 0-.4 1.1-1.4 2.2-2.7 3.3-4.1.1 0 .1.1.2.1-.4 2.8-.8 5.5-1.2 8.3h-.2zM148.6 44.4c-.8-.7-1.6-1.3-2.4-2 2-1.1 4-1.4 6.4-1.6-1.4 1.2-2.7 2.4-4 3.6zM142.5 50.8c-1.3 1.5-2.4 3-3.6 4.4-.1 0-.2-.1-.3-.1.5-2 1.1-4 1.7-6.2.9.7 1.5 1.3 2.2 1.9zM159 44.4c-1.3-1.2-2.5-2.3-3.7-3.4 1.4-.2 4.3.6 5.8 1.6-.8.6-1.4 1.1-2.1 1.8zM167.8 54c-.9-1-1.7-2.1-2.7-3.2.5-.4 1-.9 1.6-1.4.5 1.6.9 3.1 1.3 4.5-.1 0-.2.1-.2.1zM154 119.6c-1.8-1.3-.6-2.8-.2-4.3.1 1.5 1.7 2.8.2 4.3zM142.1 89.4c.6.9 1.3 1.8 1.7 2.8.2.6-.2 1.4-.3 2.1h-.3c-.4-1.6-.8-3.2-1.2-4.9h.1zM164.5 91.3c-.2.6-.3 1.3-.5 2-.8-1 .1-1.5.5-2zM208.1 278.4c-.7-.4-1.2-.7-1.8-.9-5.9-2.5-11.7-5.3-17.7-7.5-11.3-4.1-22.7-8-34-11.9-12-4.1-24-8-35.9-12.1-5.8-2-11.4-4.2-16.8-7-2.6-1.4-2.6-1.4-2.6-4.4v-19.8-.9c2.5 1.2 5 2.4 7.5 3.5 9.4 4 19 7.2 28.7 10.4 5.4 1.8 10.9 3.4 16.3 5.3 15.8 5.4 31.6 10.5 47 17 2.9 1.2 5.7 2.7 8.5 4.1.8.4 1 .9 1 1.8v21.4c-.2.2-.2.5-.2 1zm-75-30.2c-.2-.1-.6-.1-.7-.3-.4-.9-.9-.5-1.3 0-.4-.5-1.2-.7-.6-1.5.1-.1-.1-.4-.2-.5-.1-.1-.4-.1-.5 0-.1.2-.3.5-.2.6.4.5 0 .6-.5.8 0-.5.1-.9.1-1.3 0-.2-.1-.4-.2-.5-.1-.1-.4-.1-.5 0-.1.1-.2.3-.3.5v.6c-.1.1-.2.1-.2.2-.2-1.1-.8-.8-1.5-.6.1-.2.3-.2.3-.3.1-.3.1-.6.1-.8-.3.1-.6.1-.8.3-.2.1-.4.4-.7.6l-.2-.2c.1-.2.3-.4.3-.6v-.8c-.3.1-.6.2-.8.3-.2.2-.4.5-.6.7-.1 0-.1 0-.2-.1v-1.1c-.3.1-.6.1-.8.3-.2.2-.3.4-.5.8-.1-.4-.2-.7-.2-.9-1.6-.2-3.1-.5-4.6-.7 1 .6 2.1 1.2 3.2 1.6 2 .7 3.9 1.3 5.9 1.9l2.4.9c1.3.4 2.6.7 3.9 1 .1 0 .2.1.3.1 1.2.5 2.5.9 3.7 1.4.5.2 1.1.2 1.7.3.8.3 1.5.6 2.3.9 1.2.5 2.5.9 3.8 1.4.2.1.4.1.8.2-2.6-2.1-5.4-3-8.4-3.6-.1-.6-.6-.8-1.1-.6-.2-.2-.4-.4-.7-.5-.9-.2-1.7-.4-2.5-.5.1-.3.3-.6.5-1-.2-.1-.6-.2-.7-.1-.6.4.1.7.2 1.1zm71 9.6c.2.2.5.3.8.5-.5.4-.9.8-1.3 1.3-.1.1-.3.4-.2.5.1.2.4.4.5.4.6-.3.8.1 1 .7-.3.1-.5.1-.7.1h-.8s-.1.5 0 .5c.3.1.6.1.9.1.1 0 .2.1.5.2-.3.2-.4.3-.6.4-.2.1-.5.1-.7.2-.1 0 .1.4.1.6.3-.1.6-.1.9-.2h.2c0 .5.1.9.1 1.4-.1.6-1.3-.2-1.1.9 0 .2.7.2 1.1.3.1.3.2.8.3 1.4-.2 0-.5-.1-.7-.1-.2 0-.4 0-.6.1-.1.1-.2.4-.1.5.1.1.3.2.5.3.3.1.6.2 1 .2 0 .1 0 .2-.1.3-.2 0-.5-.1-.7 0-.3.1-.5.3-.7.4.2.2.4.3.7.5.2.1.5.1.8.2v.3c-.2 0-.5 0-.7.1-.2 0-.5 0-.6.1-.1.1-.1.5 0 .6.1.1.4.2.6.2h.4c0 .1.1.2.1.2-.2.1-.5.3-.7.4-.2.1-.4.2-.5.4-.1.1.1.5.2.5.2.1.4 0 .6-.1.2 0 .3-.1.5-.1v.2c-.3.2-.5.5-.8.7.5.6 1.1 1.1 1.7 1.8v-1.1c-.1-2.2-.1-4.3-.2-6.5v-2.1c0-1-.1-2.1-.1-3.1 0-2.1 0-4.2-.1-6.3 0-.2-.2-.4-.3-.4-1.2-.5-2.4-.9-3.8-1.4.7 1.5 2.2 1.4 3.2 2.3-.3 0-.5-.1-.6 0-.2 0-.5.1-.7.2-.1 0 0 .4 0 .5.2.1.5.1.7.1h.6c-.3.2-.5.5-.6.8-.1-.1-.3-.2-.4-.2-.2 0-.5.2-.6.4-.1.1.1.5.2.5.2 0 .5 0 .7-.2.1-.1.1-.4.1-.5zm-100.9-23c-.3-.2-.5-.4-.8-.6.4-.4.7-.8 1.1-1.2.2-.2.3-.4.4-.6-.2-.1-.4-.2-.7-.3-.2-.1-.5-.2-.7-.3 0 0 0-.4.1-.4h.7c.2 0 .5 0 .6-.1.1-.1.2-.4.1-.5-.1-.2-.4-.3-.6-.3-.2 0-.3.1-.5.1 0-.1-.1-.2-.1-.3.2-.1.4-.1.6-.2.2-.1.5-.1.7-.2.1-.1 0-.5-.1-.5-.2-.1-.5 0-.7 0-.1 0-.2.1-.3.1-.1-.5-.1-1-.2-1.5.1-.6 1.3.2 1.2-.8 0-.2-.7-.3-1.1-.4-.1-.4-.2-.8-.3-1.4h.6c.2 0 .5 0 .7-.1.1 0 .1-.4.1-.5-.1-.1-.4-.2-.6-.3l-.9-.3c0-.1 0-.2.1-.3.2 0 .5.1.7 0 .3-.1.5-.3.7-.4-.2-.2-.4-.3-.7-.5-.2-.1-.5-.2-.8-.2 0-.1 0-.2.1-.3.2 0 .5.1.7 0 .2-.1.5-.2.7-.4-.2-.2-.4-.4-.6-.5-.1-.1-.3 0-.5 0 0-.1 0-.2-.1-.3.3-.1.5-.2.7-.3.2-.1.4-.2.4-.4.1-.1 0-.4-.1-.5-.2-.1-.4-.1-.6 0-.2 0-.4.2-.6.2v-.1c.3-.3.6-.5.8-.7-.7-.7-1.1-1.2-1.6-1.8v4.5c0 2.5.2 5.1.2 7.6v6.5c0 .2.3.6.5.7 1.3.5 2.7 1 4.3 1.6-.7-.5-.5-1.6-1.7-1.4-.6.1-1.4-.7-2.2-1.1.2 0 .4-.1.5-.1.3 0 .5 0 .8-.1.1 0 0-.5-.1-.5-.2-.1-.5-.1-.7-.1h-.6s.2-.3.4-.5c.3 0 .6 0 .8-.1 0 0 .1-.4.1-.5-.1-.1-.3-.2-.5-.3-.2.3-.3.6-.4.9zm44 14.4c-.8-.1-1.4-.2-2.1-.2-.6-.1-1.2 0-1.3.8-.1.7.5.9 1.1 1 1.2.1 2.3.3 3.5.4.9.1 1.8.3 2.8.3.4 0 .7-.5 1.1-.7-.3-.3-.5-.7-.9-.9-.4-.2-1-.1-1.4-.2-.2-.1-.5-.4-.5-.5.1-3.1.2-6.1.4-9.2h.2l2.1 6c-.3 0-.6 0-.8.1-.3.2-.8.5-.8.8 0 .3.4.8.7.8 1.3.2 2.7.4 4 .4.3 0 .8-.3.9-.6.1-.2-.3-.6-.5-.9-.1-.1-.2-.1-.4-.2.9-1 1.8-2 2.6-3 .1 0 .1.1.2.1-.3 2.9-.6 5.9-.9 8.8-.6 0-1.2-.2-1.6-.1-.4.1-.7.5-1 .8.3.3.6.8.9.9 1.4.2 2.9.3 4.3.3.4 0 .7-.5 1.1-.7-.3-.3-.5-.7-.9-1-.1-.1-.4-.1-.6-.1 0-.1-.1-.2 0-.3.3-3.3.6-6.7 1-10 0-.2.3-.4.4-.6.2-.3.5-.7.4-.9-.1-.3-.5-.6-.8-.7-1.1-.3-2.1 0-2.9.9-1.1 1.4-2.3 2.6-3.6 4.1-.2-.5-.3-.8-.4-1.2-.6-1.8-1.2-3.5-1.8-5.3-.1-.4-.5-.9-.8-.9-1.3-.2-2.7-.4-4-.5-.3 0-.6.5-1 .7.3.3.5.7.8.9.3.2.7.1 1.1.2-.3 3.3-.4 6.8-.6 10.4zm43.6 16.4c.5.2.8.4 1.2.5 1.4.4 2.8.9 4.2 1 1.9.2 3.2-.8 3.6-2.4.5-2.1-.2-3.7-1.9-4.6-.7-.3-1.4-.6-2.2-.8-.1-.7.3-1.7-.8-1.9-1.1-.2-1.2.6-1.4 1.4-.3-.2-.6-.3-.8-.4-.9-.7-.9-1.6-.7-2.6.2-.8.5-1.5 1.4-1.6 1.8-.3 3.7 1.4 3.6 3.2 0 .7.2 1.2.9 1.3.7.1 1.1-.3 1.2-1 .1-1.3.3-2.6.3-3.9 0-.4-.4-1-.7-1-.4-.1-.9.3-1.3.5-.1.1-.1.3-.1.4-1-.4-2-.8-3-1-2.2-.4-3.9.7-4.4 2.7-.6 2.4.2 4.2 2.3 5.1.6.2 1.3.3 1.2 1.2 0 .2.5.6.8.6.3 0 .7-.2 1-.3.2-.1.2-.4.3-.7.4.1.8.2 1.1.4 1 .5 1.3 1.6.9 2.8-.3.9-.9 1.3-2.1 1-1-.2-2.1-.6-3.1-1-1.1-.4-2.1-.9-1.8-2.4.1-.6-.5-.9-1.1-.9-.6 0-1 .3-1 .9v4.7c0 .7.4 1 1 1s1-.3 1.1-1c.3-.4.3-.7.3-1.2zm-14.4-10.1c-.5-.1-.8-.2-1.1-.2-.6 0-1.1.2-1.1.8 0 .3.5.7.8.9.4.2.9.2 1.2.3v4c-.8-.1-1.4-.2-2.1-.1-.4.1-.7.5-1.1.7.3.3.6.9.9.9 2 .3 3.9.4 5.9.6.6 0 1.1-.2 1.1-.8 0-.3-.5-.7-.9-.9-.5-.2-1.1-.2-1.6-.2v-4h.7c.9-.2 1.4.2 1.8 1 .8 1.7 1.7 3.4 2.6 5.1.4.8 1 1.1 1.7.7.8-.5.4-1 .1-1.6l-3-5.7.6-.3c1.9-1 2.6-2.9 2-5-.3-1-.9-1.6-1.8-1.7-.7-.1-1.3-.2-2-.2-2-.2-4.1-.4-6.1-.7-.6-.1-1.1.1-1.2.8-.1.6.4.9 1 .9.5.1 1 .1 1.4.2.2 1.6.2 3 .2 4.5zm-66.7-28.4c2 .2 3.6.5 5.3.6.9.1 1.5.3 1.3 1.4-.1.7.3 1.1 1 1.1s1-.4 1-1.1v-2.9c0-.8-.2-1.3-1-1.4-.8-.1-1 .4-1.1 1.1-.6-.1-1-.3-1.5-.3-1.7-.1-3.4-.3-5.1-.2-1.1 0-1.8.8-1.8 1.8-.1 1.1-.1 2.1-.1 3.2 0 1.2-.1 2.4-.1 3.6-.2 2.7 1.2 4.5 3.8 4.9 1.2.2 2.5.2 3.8.3 0 .3 0 .7-.1 1-.1.7.2 1.1.8 1.2.6.1 1.1-.2 1.2-.9.3-2.4.7-4.8 1-7.2.1-.9-.3-1.3-1.2-1.5l-3-.3c-.9-.1-1.3.3-1.5 1.2-.1.7-.2 1.4-.2 2.1-.1.6.2 1 .8 1.1.6.1 1.1-.2 1.2-.8.1-.4.1-.9.2-1.3h1.6c-.1.6-.1 1-.2 1.5-.3 2-.9 2.4-3 2.1-.2 0-.4-.1-.6-.1-1.8-.2-2.6-1.2-2.5-3 .1-1 .1-2 .1-3-.1-1.3-.1-2.6-.1-4.2zm55.5 29c.1-1.3.2-2.5.3-3.8.4 0 .8.1 1.1.1 1 .1 2 .3 2.9.3.3 0 .6-.5 1-.7-.3-.3-.5-.7-.8-.9-.3-.2-.6-.1-1-.2-1-.1-2.1-.2-3.2-.4l.3-3.9c1.7.2 3.3.4 4.9.5v1.2c0 .7.4 1 1 1s1.1-.2 1.1-.9c.1-1.1.2-2.2.2-3.3 0-.3-.5-.9-.8-.9-.4-.1-.8.3-1.2.5-.1.1-.1.4-.2.6-1.3-.1-2.5-.3-3.7-.4-1.4-.2-2.9-.4-4.3-.4-.3 0-.7.5-1.1.7.3.3.5.7.8.9.3.2.7.1 1.1.2l-.3 3.9c-.5-.1-1-.2-1.4-.1-.4.1-.7.5-1.1.8.3.3.5.7.9.9.4.2.9.1 1.4.2-.1 1.2-.2 2.3-.3 3.5h-.5c-.6 0-1.1.1-1.2.8-.1.7.5.9 1 1 .7.1 1.4.3 2.1.4 1.7.3 3.5.7 5.2 1v.6c-.1.7.3 1.1 1 1.1s1.1-.3 1.1-1.1c0-1 .1-2 .2-3.1 0-.7-.4-1.1-1-1.1s-1 .3-1.1.9c0 .3-.1.5-.1.8-1.2 0-2.7-.3-4.3-.7zm-42.1-15.2c.2-.5.4-.8.6-1.2.3-1.1.9-1.6 2.1-1.3.6.1 1.2.1 1.8.1.5 0 .7.2.9.7.4 1.3.9 2.6 1.3 3.9.3.9.9 1.3 1.6 1 .8-.3.6-1 .4-1.6-1.2-3.4-2.3-6.7-3.5-10.1-.1-.2-.1-.4-.2-.7.4 0 .7.1.9 0 .4-.2.7-.5 1-.8-.3-.3-.5-.9-.8-.9-1.7-.2-3.4-.3-5.1-.4-.3 0-.6.5-.9.8.3.3.6.7.9.9.3.2.8.1 1.3.1-.6 1.1-1.1 2.2-1.5 3.2-.5 1-.8 2.2-2.4 1.8-.2-.1-.8.5-.8.7 0 .3.4.6.7.9.2.1.4.1.6.2-.5 1.6-1.1 3-3.2 2.5-.2-.1-.6.5-.9.7.3.3.5.8.8.9 2 .2 4.1.3 6.1.4.3 0 .7-.5 1-.8-.3-.3-.5-.7-.9-.8-.5-.2-1.1-.2-1.8-.2zm15.3-3.4c-1.5-1.9-3-3.8-4.4-5.7-.5-.6-1.1-.7-1.7-.3-.7.5-.3 1 .1 1.5l4.2 5.4c.2.2.4.5.4.8-.1 2-.2 4-.4 6-.7 0-1.4-.1-2-.1-.6 0-1.2.1-1.3.8 0 .7.5.9 1.1.9 2 .2 4.1.3 6.1.4.6 0 1.1-.1 1.2-.8 0-.7-.5-.9-1.1-1-.6-.1-1.2-.1-1.9-.1.1-1.5.2-2.9.3-4.4 0-1 .3-1.8 1.2-2.5.9-.7 1.6-1.4 2.4-2.2.4-.4.9-.7 1.5-.5.6.2 1.2 0 1.3-.7.1-.7-.5-.9-1.1-1-1.2-.1-2.4-.3-3.7-.4-.7-.1-1.4-.1-1.5.7-.1.8.6.9 1.2 1l.2.2c-.7.6-1.4 1.3-2.1 2zm54.8 12.7c-6.4-2.8-13-4.7-19.5-6.9.9 1.7 1.6 2 2.4 1.4.4.4 1.2.7.6 1.5 0 .1.3.3.5.5.2-.2.4-.3.4-.5s-.1-.4-.2-.7c.2-.1.4-.2.8-.5 0 .6-.1 1-.1 1.4 0 .2.1.5.2.6.1.1.4.1.5 0 .1-.1.2-.4.2-.6v-.6c.1 0 .1-.1.2-.1.2 1.1.9.8 1.5.6-.2.2-.4.5-.6.7.9 1 1.2-.4 1.9-.4l-.4 1.2c.7-.3 1.1-.5 1.8-.7-.1.4-.2.7-.2 1 0 .2.2.5.3.7.2-.1.5-.2.6-.4.2-.3.2-.7.4-1.1h.2c0 .5.1.9.1 1.4 0 .3 0 .5.1.8 0 .1.4.1.5 0 .1-.2.1-.5.2-.8 0-.2.1-.5.2-.5.2 0 .5.1.6.2.1.2 0 .4 0 .6.1.2.3.4.4.7.2-.2.4-.4.5-.6.1-.2 0-.4 0-.4.5.1.9.1 1.3.2.2 0 .4.1.4.3.2.4.3.8.5 1.3.3-.9.6-.9 1.4-.5.6.4 1.5.9 2.3.2zm-23.7-8.3c-2.1-.6-4.2-1.3-6.4-2 1.8 2.1 4 2.7 6.4 2zm18.9 9c.2-.3.5-.5.5-.7 0-.2-.3-.5-.4-.4-.2 0-.5.3-.5.4 0 .2.2.4.4.7zm-82.7-14.2c-.4-.2-.6-.4-.8-.4-.2 0-.4.3-.4.5.1.2.3.5.5.5.2-.1.4-.3.7-.6zm25.5 10.9c.2-.4.4-.6.4-.8 0-.2-.3-.4-.5-.4-.1 0-.4.3-.4.5 0 .1.2.3.5.7zM99.5 211.1c8.1-.8 16.1-1.6 24.3-2.5.4 4.5.9 8.9 1.3 13.5-7.8-3.1-15.5-6.2-23.2-9.3-.9-.4-1.7-1-2.6-1.5.1 0 .2-.1.2-.2zm22.6-.6c-6 .5-11.9 1-17.9 1.5v.2c6.2 2.4 12.3 4.9 18.6 7.4-.2-3.1-.5-6.1-.7-9.1zM206.7 280.2c-7.6.7-15.1 1.5-22.8 2.2-.4-4.2-.8-8.3-1.2-12.6 1.2.3 2.3.5 3.3.9 5.6 2.3 11.1 4.6 16.7 7 1.4.6 2.8 1.5 4.2 2.2-.1.1-.2.2-.2.3zm-5.4-1c0-.1 0-.2.1-.3-5.5-2.3-11-4.6-16.6-6.9.3 3 .5 5.7.7 8.5 5.3-.5 10.5-.9 15.8-1.3zM99.2 163.7c3.1 1.4 6 2.8 9.1 4.1 11.5 4.7 23.4 8.6 35.3 12.4 17.6 5.7 35.1 11.5 52.3 18.4 3.7 1.5 7.3 3.4 11 5.1 1 .5 1.3 1.1 1.3 2.2-.1 7 0 14 0 21v1.1c-.2 0-.3 0-.4-.1-6.3-3.5-13-6.1-19.8-8.5-11.1-4-22.3-7.9-33.5-11.7-12.9-4.4-25.8-8.7-38.7-13.2-4.5-1.6-8.8-3.6-13.2-5.5-3.4-1.5-3.3-1.7-3.3-5.3v-19.1c-.1-.3-.1-.6-.1-.9zm74.9 35h.7c.6 0 1.1-.1 1.2-.7.1-.6-.4-.9-1-.9-1.5-.2-3-.3-4.6-.4-.4 0-1 .4-1 .7-.2.6.4.9.9.9.6.1 1.2.1 1.7.2v7.7c-.3-.3-.5-.6-.6-.9-1.1-2.7-2.1-5.5-3.2-8.2-.2-.4-.6-.9-1-1-1.7-.3-3.5-.4-5.3-.5-.3 0-.7.5-1.1.7.3.3.6.7 1 .9.6.2 1.2.2 1.9.3-.2 3.1-.3 6.2-.4 9.3-.6-.1-1.1-.2-1.5-.2-.4.1-1.1.3-1.2.7-.2.6.4.9.9.9 1.8.2 3.7.5 5.5.7.6.1 1.1-.1 1.2-.7.1-.7-.4-.9-1-.9-.6-.1-1.2-.2-1.9-.3.2-3.2.3-6.3.4-9.4.1 0 .2-.1.3-.1.2.3.4.5.5.8 1.4 3.5 2.7 7 4.1 10.4.2.5.5 1.1.9 1.2.8.3 1.8.3 2.7.3.3 0 .7-.3.8-.6.1-.2-.2-.7-.3-.8-.8-.2-.7-.8-.7-1.4.1-1.6.1-3.3.1-4.9v-3.8zm-16.7 4.1c0 .1.1.2.1.3 0 .7.5.9 1.1 1 .7 0 1-.4 1-1l.3-2.4c.1-.6-.2-1-.8-1.1-.6-.1-1.1 0-1.3.7-.1.3-.1.6-.2 1-2-.3-3.9-.7-5.9-1 .1-1.5.2-2.8.4-4.3.6 0 1.2.1 1.8.1 1.1.1 2.2.2 3.2.2.3 0 .7-.4 1-.7-.3-.3-.5-.7-.8-.9-.4-.2-.9-.1-1.4-.2l-3.6-.3c.1-1.4.2-2.7.3-4 1.9.3 3.7.6 5.5.9 0 .3 0 .4-.1.6-.2.8.1 1.3.9 1.3.7.1 1.1-.3 1.2-1.1.1-.8.2-1.6.2-2.4 0-.3-.3-.8-.5-1-.3-.1-1-.1-1.1.1-.4.8-1 .6-1.7.5-.7-.1-1.5-.2-2.2-.3-1.5-.2-3-.5-4.5-.7-.6-.1-1.1 0-1.3.7-.1.7.4.9.9 1 .2 0 .4.1.7.2-.1 1.4-.2 2.7-.4 4-.5 0-1-.1-1.4 0-.4.1-.6.5-1 .7.3.3.5.7.9.8.4.2.9.1 1.4.2-.1 1.4-.2 2.7-.3 4h-.3c-.6 0-1.1.1-1.2.7-.1.7.5.8 1 .9.1 0 .3 0 .4.1 2.6.5 5.1.9 7.7 1.4zm-23.2-19.9h1c.6 0 1.2-.1 1.2-.8 0-.6-.5-.8-1-.9-1.6-.2-3.3-.3-4.9-.5-.6-.1-1.2.1-1.2.8 0 .6.5.8 1 .9.6.1 1.2.1 1.9.2-.1 1.2-.2 2.2-.4 3.2-2.1-.2-4-.4-6-.6.1-1.4.2-2.7.3-3.9 0-.4-.2-.9-.5-1.1-.7-.5-1.5 0-1.6.9-.2 2-.3 4.1-.4 6.1-.1 1.3-.2 2.6-.3 4-.8-.1-1.5-.2-2.2-.2-.6 0-1.1.1-1.1.7 0 .3.5.8.9.9 2.2.3 4.3.6 6.5.8.6.1 1.2 0 1.2-.7.1-.7-.5-.9-1.1-.9-.7-.1-1.5-.2-2.3-.3.1-1.5.2-2.9.3-4.5 2 .2 3.9.4 5.9.6-.2 1.9-.4 3.8-.6 5.6-.1.7.2 1.1.9 1.2.7.1 1.1-.2 1.2-.9.1-.8.2-1.7.3-2.5.5-2.7.7-5.3 1-8.1zm55.2 25.1c-.3-.4-.5-.7-.8-1.1-1.1-1.5-2.2-3.1-3.3-4.6-.4-.6-1-.8-1.6-.4-.7.5-.3 1 .1 1.4 1.5 2 2.9 4 4.4 6.1-.8.9-1.5 1.8-2.3 2.7-.7.8-1.2 1.8-2.6 1.4-.2-.1-.7.4-.8.7-.1.1.3.7.6.8 1.7.2 3.5.4 5.3.5.3 0 .7-.5.8-.8 0-.2-.4-.6-.7-.8-.4-.2-.8-.1-1.4-.2.8-1 1.6-1.8 2.4-2.7.7.9 1.2 1.7 1.8 2.5.7 1 1.4 2 2.1 2.9.4.6 1 .7 1.6.3.6-.4.3-.9 0-1.4l-.6-.9c-1.2-1.6-2.4-3.3-3.6-5 1.2-1.4 2.4-2.7 3.4-4 .5-.7 1.1-1 2-.8.6.1 1.2 0 1.2-.7.1-.7-.6-.9-1.2-.9-1.8-.2-3.5-.3-5.3-.5-.6-.1-1.2.1-1.2.7-.1.7.5.9 1.1.9.6.1 1.1.1 1.8.2-1.2 1.4-2.2 2.5-3.2 3.7zm-74.7-23.3c1.7 0 3.2.2 4.7-.1 2.6-.5 3.5-3.4 1.9-5.5-.4-.5-1-1-1.6-1.3-2.4-1.4-5.1-1.7-7.8-1.8-.3 0-.6.5-.9.7.3.3.5.7.9.8.3.2.7.1 1.1.1-.1 1.5-.2 2.9-.3 4.4-.3-.1-.5-.2-.7-.2-.6-.2-1.1-.1-1.3.6-.2.6.3.8.8 1 .3.1.6.2.8.3.2.1.4.3.4.5 0 .9-.1 1.8-.2 2.8-.9-.1-1.7-.2-2.5-.3-.6-.1-1.2 0-1.3.8 0 .7.6.8 1.1.9 2.2.3 4.5.5 6.7.8.7.1 1.3 0 1.4-.7.1-.7-.6-.9-1.2-.9l-2.1-.3c0-.9 0-1.8.1-2.6zm32.1 7h-.1v-1.3c-.2-1.9-.7-3.7-2.1-5.1-1.4-1.4-3.2-2.1-5.2-1.6-1.9.5-2.8 2-3.1 3.8-.3 1.7-.4 3.5-.2 5.3.2 2.5 1.9 3.9 4.3 4.2l1.2.3c2.2.7 4-.3 4.7-2.5.3-1.1.4-2.1.5-3.1zm30.9 19.8c-.8-.1-1.4-.2-2-.2-.3 0-.6.5-1 .7.3.3.5.8.8.8 2 .3 3.9.6 5.9.7.3 0 .7-.4 1-.7-.3-.3-.5-.8-.9-.9-.5-.2-1.1-.2-1.7-.3l.6-10.8h.7c.6 0 1.2 0 1.3-.7.1-.7-.6-.9-1.2-.9-1.5-.1-2.9-.2-4.4-.2-.4 0-1 .4-1 .7-.2.6.4.9.9.9.5.1 1 .1 1.6.1-.2 3.8-.4 7.3-.6 10.8zm-75.6-39v-.4c.3 0 .5.1.8 0 .2-.1.4-.3.6-.4-.2-.2-.3-.4-.5-.5-.2-.1-.4 0-.6 0 0-.1-.1-.2-.1-.2.2-.1.5-.2.7-.3.2-.1.4-.2.5-.4.1-.1-.1-.5-.2-.5-.2-.1-.4 0-.6.1-.2 0-.4.1-.5.2 0-.1 0-.1-.1-.2.3-.2.6-.5.8-.7l-1.8-1.8v1.1c.1 2.2.1 4.4.2 6.6v7c0 1.4.1 2.9.2 4.3 0 .1.2.3.3.4 1.7.7 3.3 1.3 5 2-.5-.7-1.2-1.2-1.9-1.6-.7-.4-1.6-.7-2.4-1 .2-.2.3-.2.5-.2s.5-.1.7-.2c.1 0 .1-.4 0-.5-.2-.1-.5-.1-.7-.2h-.6c.2-.3.5-.6.4-.7-.1-.3-.4-.5-.7-.8.4-.4.9-.8 1.4-1.2.1-.1.2-.4.1-.5-.1-.1-.4-.3-.5-.3-.6.2-.8-.1-1-.8.4 0 .6.1.8.1.2 0 .5.1.6 0 .1-.1.2-.5.1-.5-.2-.1-.4-.2-.7-.2-.1 0-.2 0-.4.1 0-.1-.1-.2-.1-.3.2 0 .4-.1.6-.1.2-.1.5-.1.6-.2.1-.1 0-.5-.1-.5-.2-.1-.5-.1-.7 0-.1 0-.3.1-.3.1-.1-.5-.1-1-.2-1.5.2-.4 1.3.2 1.2-.8 0-.2-.7-.3-1.1-.4-.1-.4-.2-.8-.3-1.4.3 0 .5.1.8.1.2 0 .4 0 .6-.1.1-.1.2-.4.1-.5-.1-.2-.4-.3-.6-.3-.3-.1-.6-.2-.9-.2v-.3c.2 0 .5.1.7 0 .2-.1.5-.2.7-.4-.2-.2-.4-.4-.6-.5-.2-.5-.5-.5-.8-.5zm102.4 44h-.6c-.2 0-.5 0-.7.1-.1 0-.2.4-.1.5.2.1.4.2.7.3l.9.3c0 .1 0 .2-.1.3-.3 0-.5-.1-.7 0-.3.1-.5.3-.7.4.2.2.4.4.6.5.3.1.6.1.8.2v.4c-.3 0-.5-.1-.8 0-.2.1-.4.3-.7.4.2.2.4.4.6.5.1.1.4 0 .6 0 0 .1.1.2.1.2-.2.1-.5.2-.7.3-.2.1-.4.2-.5.4-.1.1.1.4.2.4.2.1.4 0 .6 0 .2 0 .4-.1.6-.2 0 .1 0 .1.1.2-.3.2-.6.5-.8.7.6.6 1.1 1.2 1.7 1.8v-3c-.1-2.8-.2-5.7-.3-8.5v-7.1c0-.2-.2-.6-.4-.7-1.1-.5-2.3-.9-3.5-1.3 0 .1-.1.2-.1.3.6 1.2 2.1.9 3 1.9-.3 0-.5-.1-.7-.1-.2 0-.4.1-.6.3-.1.1-.1.4 0 .5.2.1.4.2.6.2.2 0 .4-.1.6-.1-.6.7-.5 1.2.3 1.4-.3.5-.6.9-.8 1.3-.2.2-.4.4-.6.7.3.1.6.1.9.2.2.1.4.3.5.5 0 .1-.1.3-.1.4-.1.1-.3.1-.4 0-.3 0-.5-.1-.8 0-.1 0-.1.5-.1.5.3.1.6.1.8.1.1 0 .2 0 .5.1-.3.2-.4.3-.6.4-.2.1-.5.1-.8.2 0 0 0 .5.1.5.3 0 .6-.1.8-.1h.2c.1.5.2 1 .2 1.4-.2.5-1.3-.2-1.2.8 0 .2.8.3 1.1.4.1.1.1.5.3 1.1zm-26.2-20.6c.2-.2.4-.3.6-.6.2 1.2.8.8 1.5.6-.1.2-.3.3-.6.7.7-.1 1.2-.1 1.8-.2.1.9.7.7 1.2.4.2.6.5 1.1.7 1.7.2-.6.4-1.1.6-1.5h.3v1.8c.2.1.5.1 1 .3-.2-.4-.3-.6-.3-.8-.1-.4.5-.7.7-.3.2.3.2.7.3 1.1.1 0 .4.1.8.2 0-.5.1-.8.1-.9.5.1.9.2 1.2.2.2 0 .5.1.5.2 0 .9.5.9 1.1.6.1-.1.3 0 .4 0 .5 0 1 .1 1.5.1v-.2l-2.4-.9c-1.3-.5-2.6-1.1-4-1.5-1.1-.4-2.2-.7-3.3-1-1.5-.5-2.9-1.2-4.4-1.7-1.2-.4-2.5-.7-3.8-1-.1 0-.2-.1-.3-.1-1.2-.5-2.5-1-3.7-1.4-.8-.3-1.7-.2-2.5-.5-1.9-.6-3.7-1.4-5.7-2.1 1.5 1.7 3.4 2.2 5.3 3l-.2.4c0 .1.1.2.1.2.3-.1.6-.2.8-.3.2-.1.4-.1.6-.1.1 0 .2.3.2.4 0 .6 0 .6.6.6.1-.3.2-.7.2-.8.6.3 1.1.4 1.5.6.3.1.5.4.8.4.9.2 1.8.3 2.7.5.1 0 .2.1.2.2.4.9.8.8 1.3.1.6.5 1 1.5 1.9.6.3.2.5.6.7 1zm-41.2 3.7c-.2-1-.7-1.2-1.2-.9-.4-.3-.6-.5-.9-.6-.9-.2-1.8-.3-2.7-.5-.1 0-.2-.1-.2-.2-.4-.9-.8-.7-1.4.1-.4-.5-.7-.9-1-1.3-.3.2-.5.4-.8.5v-.3c-.8-.1-1.7-.1-2.5-.2.8.5 1.7 1 2.6 1.2 1.3.4 2.6.7 3.9 1h.1c1.3.5 2.6 1 4 1.4.4.1.9.2 1.3.3.6.2 1.1.3 1.7.5.4.1.7.3 1.1.4 1.1.4 2.2.6 3.2 1.1.9.4 1.8.6 3 .5-.3-.4-.5-.7-.7-.7-.9-.3-1.9-.5-2.8-.7 0-.6 0-.6-.7-.7-.1 0-.1-.2-.2-.2l-3.3-.9c0-.1.2-.3.2-.4-.2-.3-.4-.5-.6-.8-.2.5-.2 1.4-1.1.7v-.2c.1-.3.2-.5.1-.8 0-.1-.5-.2-.5-.2-.1.2-.2.5-.3.7.1.6 0 .8-.3 1.2zM124.3 171.7c-3.1-.8-5.8-2.2-8.5-3.3-4.6-1.8-9.1-3.7-13.6-5.6-.8-.3-1.6-.8-2.3-1.3v-.3c7.7-.7 15.4-1.4 23.2-2.2.3 4.3.7 8.4 1.2 12.7zm-2.2-2.3c-.3-2.9-.5-5.6-.8-8.4l-15.6 1.5v.2c5.4 2.1 10.8 4.4 16.4 6.7zM181.8 219.3c.8.2 1.5.3 2.2.6 6.3 2.7 12.6 5.3 18.9 8 1.1.5 2.3 1 3.4 1.5 0 .1 0 .2-.1.3-7.7.6-15.3 1.2-23.1 1.8-.5-4.1-.9-8-1.3-12.2zm18.1 9.2v-.2c-5.2-2.2-10.3-4.4-15.7-6.6.2 2.8.5 5.5.7 8.2 5.1-.5 10-.9 15-1.4zM129.3 289.8c.8 7.9 1.6 15.7 2.4 23.6-7.9.8-15.8 1.6-23.9 2.4-.8-7.9-1.6-15.7-2.3-23.7 8-.7 15.8-1.5 23.8-2.3zm.3 22.2l-2.1-20.4-20.4 2.1 2.1 20.4c6.9-.8 13.6-1.5 20.4-2.1zM165.1 294.1c.2-1 .5-2.1.7-3.1.1 0 .1 0 .2.1.1.4.3.8.4 1.1-.1 0-.1-.1-.2-.1-.3.7-.6 1.4-.8 2.1-.1-.1-.2-.1-.3-.1zM162.1 304.1c-.7.1-1.6.1-1.6 1.3-.1-.1-.2-.1-.3-.2.2-.5.4-1 .8-1.4.2-.1.7.2 1.1.3zM163.6 299.4c-.2-.4-.4-.9-.7-1.3h1c0 .5-.1.9-.1 1.4-.1-.1-.2-.1-.2-.1z"/><path d="M140.9 123.9c-.3.5.1.8.5.9.5.1 1 0 .7.6-.2.6-.6.3-1 0-.1 0-.2.1-.6.2.4.3.7.4 1 .6.3.1.6.2.8.2l-.3.9c1.2.6 1.2.6.6 1.4.3 0 .6-.1.7 0 .2.1.6.4.6.6.1.6.2.8.9.8.2 0 .4.2.6.3-.1.2-.2.5-.4.6-.1.1-.3.1-.5.3.5-.1 1-.2 1.5-.2.2 0 .4.3.6.4-.1.2-.3.5-.5.6-.2.1-.4-.1-.7 0 .2.1.3.3.5.3.3 0 .6 0 .9-.1.4-.2.8-.3.9.3 0 .2-.4.5-.7.8 0 0 .1.2.2.2.5-.1.9-.3 1.4-.4.2 0 .5.2.5.3 0 .2-.1.5-.3.6-.1.1-.4 0-.7 0 0 .1-.1.1-.1.2.2.1.4.3.5.2.7-.3 1-.2.9.6 0 .1.2.3.3.4.1 0 .1-.1.2-.1-.1-.2-.2-.3-.2-.5s.1-.4.2-.6c.1-.1.4-.1.5 0 .1.2.3.5.2.6-.5.8.1 1.2.5 1.8.1.2.2.5.3.8-.3-.1-.6-.1-.8-.3-1-.7-2-1.5-3-2.3-2.1-1.8-4.4-3.5-6.2-5.6-1.9-2.2-2.2-5.1-1.2-7.8.8-2.2 3.9-4.3 7.1-2.9 1 .4 1.8 1.2 2.6 1.8.2.1.1.5.2.6-.6.3-1 .5-1.5.6-.2 0-.4-.2-.6-.3.1-.2.2-.5.4-.6.1-.1.4 0 .5 0-.3-.4-.6-.7-.9-1.1-.1-.1-.2-.1-.4-.2-.4-.1-.8-.2-1.4-.4-.4.2.7 1.3-.4 1.2-.2 0-.3-.7-.5-1h-1.2c-.2.4-.4 1-1.1.5-.1 0-.4.1-.4.2 0 .2 0 .4.1.6 0 .1.3.1.3.2 0 .3-.1.5-.1.8-.2-.1-.5-.2-.7-.3-.2-.1-.3-.4-.4-.5-.1.1-.2.1-.3.2l.6 1.2c.1.2.2.4.3.7 0 .1-.4.3-.5.3-.2-.1-.3-.4-.5-.5-.1-.1-.1-.2-.2-.2s-.1.1-.2.1c.2.3.3.6.5.9.2.2.4.4.7.5-.1.2-.3.5-.4.4-.3 0-.5-.2-.9-.4zM165.4 121.4c-.2.1-.4.2-.7.3-.1 0-.3-.3-.3-.3.1-.2.2-.4.4-.6.1-.1.2-.3.5-.6-.4.1-.6 0-.7.1-.5.3-1.1 1-1.4-.2 0 0-.4 0-.4.1-.5 1.1-.9.5-1.2-.1-.1.3-.3.6-.5.9-.3-.2-.6-.3-.9-.5-.4.2.4 1.4-.8 1.2-.3 0-.5 1.2-1.2.3 0 .4.1.8.1 1.2-.3 0-.5 0-.9.1.5.7.3 1.5-.4 2.1-.4.3-.8.4-1.3.6.1-2.5.9-4.4 2.7-6 2.5-2.3 6.1-2 8 .7.1.2.1.6.1.9-.4-.1-.7-.2-1.1-.2z"/><path d="M145.5 120c-.4.2-.6.4-.8.4-.2 0-.3-.3-.5-.4.2-.2.3-.5.5-.5s.4.3.8.5zM147.4 119.6c.2.4.4.6.4.8 0 .2-.3.4-.4.4-.2 0-.5-.3-.5-.4 0-.2.2-.4.5-.8zM180 155.5c7-.7 13.8-1.3 20.8-1.9.6 6.9 1.3 13.8 2 20.8-6.9.6-13.8 1.3-20.8 1.9-.7-6.9-1.4-13.8-2-20.8zM198 127.7c.6 6.7 1.3 13.4 1.9 20.2-6.9.6-13.8 1.3-20.8 1.9-.7-6.9-1.3-13.8-1.9-20.8 2.3-.2 4.5-.4 6.8-.6.2 0 .4.2.6.3 2.2 1.3 4.5 2.2 7 2.1 2.1 0 4-.9 5.5-2.4.3-.3.5-.5.7-.8 0 .1.1.2.2.1zM132.5 118.5c-.6.3-1.1.6-1.5.8-.1.1-.4.1-.5 0l-.3-.9c-.1 0-.2.1-.3.2-.2.2-.3.7-.5.7-.6 0-.5-.5-.4-.9 0 0-.1-.1-.2-.3-.5.7-1.2 1.8-1.5 0l-.8.8-.6-.9c-.2.3-.4.6-.6 1-.3-.3-.5-.7-.8-1-.2.3-.4.6-.7.9-.1 0-.4-.2-.6-.3-.5.6-.6.6-1.1.1-.3.1-.6.4-.7.4-.2-.2-.4-.5-.5-.8-.1.3-.2.7-.5.8-.2.1-.6-.2-.8-.4l-.9.6c-.5.3-.4.7-.2 1.2.6 1.6.3 3-.8 4.2-1 1.1-2.8 1.4-4.2.8-1.4-.6-2.2-1.7-2.3-3.3-.1-1.5.5-2.6 1.7-3.4.5-.3 1.1-.6 1.6-.7 3.5-.7 7-1.3 10.6-1 2.1.2 4.2.4 6.2.7.5.1.9.5 1.2.7zM187 121.9c0-2.1 1.7-3.8 3.8-3.8 2.1 0 3.8 1.7 3.8 3.8 0 2.1-1.7 3.8-3.8 3.8-2.1.1-3.8-1.6-3.8-3.8zM179.7 117.9c-.1-.1-.2-.2-.2-.3-.5.9-1 .5-1.5-.1-.1 0-.1.1-.2.1 0 .2.1.4.1.6 0 .2.1.5.1.7 0 .1-.4.2-.4.2-.2-.1-.3-.4-.5-.6-.1-.2-.3-.3-.4-.5-.1.2-.3.4-.4.6-.1.2-.2.5-.4.7l-.4-.1c0-.3.1-.5.1-.8v-.6h-.3c-.1.4-.1.8-.2 1.3 0 .2-.2.4-.3.5-.1.1-.4 0-.5-.1-.1-.1-.2-.4-.1-.6 0-.2.1-.4 0-.8.1 1.6-1.6 1.7-2.2 2.8-.5-1.1-.9-2.1-1.4-3.2.6-.1 1.2-.2 1.7-.3 2.6-.3 5.2-1 7.9-.7.9.1 1.9-.1 2.9-.1.2 0 .4.1.5.3.1.1-.1.4-.2.5-.1.1-.3.1-.3.1-.3 1.5-.8.8-1.3.1-.1-.2-.5-.2-.8-.3 0 .1-.1.1-.1.2.2 0 .4 0 .5.1.1.1.3.3.3.5 0 .1-.2.3-.3.4-.2 0-.5-.1-.5-.2-.3-.4-.8-.3-1.2-.4 0-.1 0 0 0 0z"/><path d="M179.7 117.8c0 .1.1.1.1.2v.9c-.2-.1-.5-.1-.7-.2.1-.2.2-.5.4-.7.1 0 .2-.1.2-.2 0 .1 0 0 0 0zM147.2 249.2c.2-3.5.3-7 .5-10.5-.4-.1-.8 0-1.1-.2-.3-.2-.5-.6-.8-.9.3-.3.6-.8 1-.7 1.3.1 2.7.2 4 .5.3.1.7.5.8.9.6 1.7 1.2 3.5 1.8 5.3.1.4.3.7.4 1.2 1.3-1.4 2.5-2.7 3.6-4.1.8-1 1.7-1.2 2.9-.9.3.1.7.4.8.7.1.2-.2.6-.4.9-.1.2-.4.4-.4.6-.3 3.3-.6 6.7-1 10v.3c.2 0 .4 0 .6.1.3.3.6.6.9 1-.4.3-.7.7-1.1.7-1.4 0-2.9-.1-4.3-.3-.3 0-.6-.6-.9-.9.3-.3.7-.7 1-.8.5-.1 1 0 1.6.1.3-3 .6-5.9.9-8.8-.1 0-.1-.1-.2-.1-.9 1-1.7 1.9-2.6 3 .2.1.4.1.4.2.2.3.5.7.5.9-.1.3-.6.7-.9.6-1.3-.1-2.7-.2-4-.4-.3-.1-.7-.6-.7-.8 0-.3.5-.6.8-.8.2-.1.4 0 .8-.1-.7-2.1-1.4-4.1-2.1-6h-.2c-.1 3.1-.3 6.1-.4 9.2 0 .2.3.5.5.5.5.1 1 0 1.4.2.4.2.6.6.9.9-.4.3-.7.7-1.1.7-.9 0-1.8-.2-2.8-.3-1.2-.1-2.3-.3-3.5-.4-.6-.1-1.1-.3-1.1-1 .1-.7.7-.8 1.3-.8.8.1 1.5.2 2.2.3zM190.8 265.6v1.1c0 .7-.4 1-1.1 1-.6 0-1-.3-1-1V262c0-.6.4-.9 1-.9s1.2.3 1.1.9c-.3 1.5.7 2 1.8 2.4 1 .4 2 .7 3.1 1 1.2.3 1.8-.1 2.1-1 .4-1.2.1-2.3-.9-2.8-.3-.2-.7-.3-1.1-.4-.1.3-.2.6-.3.7-.3.2-.7.4-1 .3-.3 0-.8-.4-.8-.6.1-1-.6-1-1.2-1.2-2.2-.9-3-2.7-2.3-5.1.6-2 2.2-3.1 4.4-2.7 1 .2 2 .6 3 1 0 0 0-.3.1-.4.4-.2.9-.6 1.3-.5.3.1.7.7.7 1 0 1.3-.2 2.6-.3 3.9-.1.7-.4 1.1-1.2 1-.8-.1-1-.5-.9-1.3.1-1.8-1.9-3.5-3.6-3.2-.9.2-1.3.8-1.4 1.6-.2 1-.3 1.9.7 2.6.2.2.5.2.8.4.2-.8.3-1.6 1.4-1.4 1.1.2.7 1.2.8 1.9.8.3 1.5.5 2.2.8 1.7.9 2.4 2.5 1.9 4.6-.4 1.6-1.7 2.6-3.6 2.4-1.4-.1-2.8-.7-4.2-1-.7 0-1.1-.2-1.5-.4zM176.4 255.5V251c-.5-.1-.9-.2-1.4-.2-.6-.1-1-.3-1-.9.1-.7.6-.8 1.2-.8 2 .2 4.1.4 6.1.7.7.1 1.3.1 2 .2 1 .2 1.6.8 1.8 1.7.6 2.1-.2 3.9-2 5l-.6.3 3 5.7c.3.6.7 1.1-.1 1.6-.6.4-1.3.1-1.7-.7-.9-1.7-1.8-3.4-2.6-5.1-.4-.8-.8-1.2-1.8-1h-.7v4c.5.1 1.1 0 1.6.2.4.1.9.5.9.9.1.6-.5.9-1.1.8-2-.2-3.9-.3-5.9-.6-.3 0-.6-.6-.9-.9.4-.3.7-.7 1.1-.7.6-.1 1.3 0 2.1.1v-4c-.4-.1-.9-.1-1.2-.3-.4-.2-.8-.6-.8-.9 0-.6.6-.8 1.1-.8.1.1.5.2.9.2zm2.2.5c1.1-.2 2.2-.3 3.1-.7 1.2-.4 1.8-2 1.3-3.2-.1-.2-.3-.4-.5-.4-1.3-.2-2.5-.3-3.9-.4v4.7zM109.7 227.1v4.2c0 1-.1 2-.1 3-.1 1.9.7 2.8 2.5 3 .2 0 .4.1.6.1 2.1.3 2.7-.1 3-2.1.1-.5.1-.9.2-1.5h-1.6c-.1.4-.1.9-.2 1.3-.1.6-.6.9-1.2.8-.6-.1-.8-.5-.8-1.1.1-.7.1-1.4.2-2.1.1-.9.6-1.2 1.5-1.2l3 .3c.9.1 1.3.6 1.2 1.5-.3 2.4-.7 4.8-1 7.2-.1.7-.6 1-1.2.9-.7-.1-1-.5-.8-1.2.1-.3.1-.7.1-1-1.3-.1-2.6-.1-3.8-.3-2.6-.4-4-2.2-3.8-4.9.1-1.2.1-2.4.1-3.6 0-1.1.1-2.2.1-3.2.1-1 .8-1.8 1.8-1.8 1.7 0 3.4.1 5.1.2.5 0 1 .2 1.5.3.1-.7.3-1.2 1.1-1.1.8.1 1 .7 1 1.4-.1 1 0 1.9 0 2.9 0 .7-.3 1.1-1 1.1s-1.1-.5-1-1.1c.2-1.1-.4-1.3-1.3-1.4-1.6-.1-3.3-.3-5.2-.6zM165.2 256.1c1.6.3 3.1.6 4.6.9 0-.3.1-.5.1-.8.1-.7.5-1 1.1-.9.6 0 1 .4 1 1.1-.1 1-.1 2-.2 3.1 0 .8-.4 1.1-1.1 1.1-.7 0-1-.4-1-1.1v-.6c-1.7-.3-3.5-.7-5.2-1-.7-.1-1.4-.3-2.1-.4-.6-.1-1.1-.3-1-1 .1-.7.6-.8 1.2-.8h.5c.1-1.2.2-2.3.3-3.5-.5-.1-1 0-1.4-.2-.4-.2-.6-.6-.9-.9.3-.3.7-.6 1.1-.8.4-.1.8 0 1.4.1l.3-3.9c-.4-.1-.9 0-1.1-.2-.3-.2-.5-.6-.8-.9.4-.3.7-.7 1.1-.7 1.4.1 2.9.3 4.3.4 1.2.1 2.4.3 3.7.4.1-.2.1-.5.2-.6.4-.2.8-.6 1.2-.5.3.1.8.6.8.9 0 1.1-.1 2.2-.2 3.3-.1.7-.5.9-1.1.9-.6 0-1-.3-1-1v-1.2c-1.6-.2-3.2-.4-4.9-.5l-.3 3.9c1.1.1 2.1.2 3.2.4.3 0 .7 0 1 .2.3.2.6.6.8.9-.3.3-.6.7-1 .7-1 0-2-.2-2.9-.3-.4 0-.7-.1-1.1-.1-.4 1.1-.5 2.3-.6 3.6zM123.1 240.9c.7.1 1.3 0 1.8.2.4.1.6.5.9.8-.3.3-.7.8-1 .8-2 0-4.1-.2-6.1-.4-.3 0-.6-.6-.8-.9.3-.3.7-.8.9-.7 2.1.5 2.7-.9 3.2-2.5-.2-.1-.5 0-.6-.2-.3-.2-.7-.6-.7-.9 0-.3.6-.8.8-.7 1.6.4 1.9-.8 2.4-1.8s1-2 1.5-3.2c-.5 0-1 0-1.3-.1-.4-.2-.6-.6-.9-.9.3-.3.6-.8.9-.8 1.7 0 3.4.2 5.1.4.3 0 .5.6.8.9-.3.3-.6.6-1 .8-.2.1-.5 0-.9 0 .1.2.1.5.2.7 1.2 3.4 2.3 6.7 3.5 10.1.2.6.4 1.2-.4 1.6-.7.3-1.3-.1-1.6-1-.5-1.3-.9-2.6-1.3-3.9-.2-.5-.4-.7-.9-.7-.6 0-1.2 0-1.8-.1-1.2-.3-1.8.2-2.1 1.3-.2.3-.4.7-.6 1.2zm4.5-4.2c-.4-1-.7-1.9-1-3-.5 1-.9 1.9-1.4 2.8.8.1 1.5.2 2.4.2zM138.4 237.5c.8-.7 1.4-1.3 2.1-2-.1-.1-.1-.2-.2-.2-.6-.1-1.3-.2-1.2-1 .1-.8.8-.8 1.5-.7 1.2.2 2.4.3 3.7.4.6.1 1.2.3 1.1 1-.1.7-.7.9-1.3.7-.6-.2-1.1.1-1.5.5-.8.8-1.5 1.5-2.4 2.2-.8.7-1.1 1.4-1.2 2.5 0 1.4-.2 2.9-.3 4.4.7 0 1.3.1 1.9.1.6.1 1.1.3 1.1 1s-.6.8-1.2.8c-2-.1-4.1-.3-6.1-.4-.6 0-1.1-.2-1.1-.9 0-.8.6-.8 1.3-.8.6 0 1.3.1 2 .1.1-2 .3-4 .4-6 0-.2-.2-.5-.4-.8l-4.2-5.4c-.4-.5-.7-1-.1-1.5.6-.4 1.2-.3 1.7.3 1.4 1.9 2.9 3.7 4.4 5.7zM103.1 234.7c-.2.3-.3.5-.6.9h.6c.2 0 .5 0 .7.1.1 0 .1.5.1.5-.2.1-.5.1-.8.1-.1 0-.3 0-.5.1.8.4 1.6 1.2 2.2 1.1 1.2-.2 1 .8 1.7 1.4-1.6-.6-2.9-1.1-4.3-1.6-.2-.1-.5-.4-.5-.7v-6.5c0-2.5-.1-5.1-.2-7.6V218c.5.5 1 1.1 1.6 1.8-.2.2-.5.4-.8.7v.1c.2-.1.4-.2.6-.2h.6c.1 0 .2.3.1.5s-.3.3-.4.4c-.2.1-.5.2-.7.3 0 .1 0 .2.1.3.2 0 .4-.1.5 0 .2.1.4.4.6.5-.2.1-.4.3-.7.4-.2.1-.5 0-.7 0 0 .1 0 .2-.1.3.3.1.6.1.8.2.2.1.5.3.7.5-.2.1-.5.3-.7.4-.2.1-.5 0-.7 0 0 .1 0 .2-.1.3l.9.3c.2.1.4.1.6.3.1.1 0 .4-.1.5-.2.1-.5.1-.7.1h-.6c.1.6.2 1 .3 1.4.3.1 1 .2 1.1.4.2 1-1 .2-1.2.8.1.5.1.9.2 1.5.1 0 .2-.1.3-.1.2 0 .5-.1.7 0 .1 0 .2.5.1.5-.2.1-.4.2-.7.2-.2.1-.4.1-.6.2 0 .1.1.2.1.3.2 0 .4-.1.5-.1.2 0 .4.2.6.3.1.1 0 .4-.1.5-.2.1-.4.1-.6.1h-.7s-.1.3-.1.4c.2.1.5.2.7.3.2.1.4.2.7.3-.1.2-.3.4-.4.6-.3.4-.7.8-1.1 1.2.5-.1.8.1 1 .2zM204.1 257.8c.1-.3.2-.6.4-1h-.6c-.2 0-.5 0-.7-.1-.1 0-.1-.4 0-.5.2-.1.4-.2.7-.2h.6c-1-.9-2.5-.8-3.2-2.3 1.4.5 2.6.9 3.8 1.4.2.1.3.3.3.4 0 2.1 0 4.2.1 6.3 0 1 0 2.1.1 3.1v2.1c.1 2.2.1 4.3.2 6.5v1.1c-.7-.7-1.2-1.2-1.7-1.8.2-.2.5-.5.8-.7v-.2c-.2 0-.3.1-.5.1s-.5.2-.6.1c-.1 0-.3-.4-.2-.5.1-.2.3-.3.5-.4.2-.1.5-.3.7-.4 0-.1-.1-.2-.1-.2-.1 0-.3.1-.4 0-.2 0-.5-.1-.6-.2-.1-.1-.1-.5 0-.6.2-.1.4-.1.6-.1.2 0 .5 0 .7-.1v-.3c-.3-.1-.5-.1-.8-.2-.3-.1-.5-.3-.7-.5.2-.1.5-.3.7-.4.2-.1.5 0 .7 0 0-.1 0-.2.1-.3-.3-.1-.6-.1-1-.2-.2-.1-.4-.1-.5-.3-.1-.1 0-.4.1-.5.1-.1.4-.1.6-.1.2 0 .5.1.7.1-.1-.6-.2-1-.3-1.4-.4-.1-1-.1-1.1-.3-.3-1.1 1-.4 1.1-.9 0-.4-.1-.9-.1-1.4h-.2c-.3 0-.6.1-.9.2 0-.2-.1-.5-.1-.6.2-.1.5-.1.7-.2.2-.1.3-.2.6-.4-.3-.1-.4-.2-.5-.2-.3 0-.6-.1-.9-.1v-.5h.8c.2 0 .4-.1.7-.1-.2-.5-.3-.9-1-.7-.1 0-.4-.2-.5-.4-.1-.1.1-.4.2-.5.4-.4.9-.8 1.3-1.3-.1 0-.4-.2-.6-.3zM133.1 248.2c.8.2 1.6.3 2.4.5.3.1.5.3.7.5.5-.2.9-.1 1.1.6 3.1.6 5.9 1.5 8.4 3.6-.4-.1-.6-.1-.8-.2-1.3-.4-2.5-.9-3.8-1.4-.8-.3-1.5-.6-2.3-.9-.5-.2-1.1-.2-1.7-.3-1.2-.4-2.5-.9-3.7-1.4-.1 0-.2-.1-.3-.1-1.3-.3-2.6-.7-3.9-1-.8-.2-1.6-.6-2.4-.9-2-.6-4-1.2-5.9-1.9-1.1-.4-2.2-.9-3.2-1.6 1.5.2 3 .5 4.6.7.1.2.1.5.2.9.2-.3.3-.6.5-.8.2-.2.5-.2.8-.3v1.1c.1 0 .1 0 .2.1.2-.2.3-.5.6-.7.2-.2.5-.2.8-.3 0 .3.1.5 0 .8 0 .2-.2.4-.3.6l.2.2c.2-.2.4-.4.7-.6.2-.1.5-.2.8-.3 0 .3 0 .6-.1.8 0 .1-.2.1-.3.3.7-.1 1.3-.5 1.5.6.1-.1.2-.1.2-.2 0-.2-.1-.4 0-.6 0-.2.1-.4.3-.5.1-.1.4-.1.5 0 .1.1.2.4.2.5 0 .4-.1.8-.1 1.3.6-.2.9-.3.5-.8-.1-.1.1-.4.2-.6.1-.1.4-.1.5 0 .1.1.3.4.2.5-.6.8.3 1 .6 1.5.5-.5.9-.9 1.3 0 .2.2.6.2.8.3zM193.2 250.2c-.8.7-1.7.3-2.2-.1-.8-.5-1-.4-1.4.5-.2-.5-.3-.9-.5-1.3-.1-.1-.3-.2-.4-.3-.4-.1-.8-.1-1.3-.2 0 0 .1.3 0 .4-.1.2-.3.4-.5.6-.1-.2-.3-.4-.4-.7-.1-.2.1-.5 0-.6-.1-.1-.4-.2-.6-.2-.1 0-.1.3-.2.5-.1.3-.1.5-.2.8h-.5c-.1-.2 0-.5-.1-.8 0-.5-.1-.9-.1-1.4h-.2c-.1.4-.2.8-.4 1.1-.1.2-.4.3-.6.4-.1-.2-.3-.5-.3-.7 0-.3.1-.6.2-1-.7.3-1.2.5-1.8.7.2-.5.3-.8.4-1.2-.7 0-1 1.4-1.9.4.2-.2.4-.5.6-.7-.7.2-1.3.5-1.5-.6-.1 0-.1.1-.2.1v.6c0 .2-.1.4-.2.6-.1.1-.4.1-.5 0-.1-.2-.2-.4-.2-.6 0-.4 0-.8.1-1.4-.4.3-.6.4-.8.5.1.3.3.5.2.7 0 .2-.3.3-.4.5l-.5-.5c.5-.8-.2-1.1-.6-1.5-.8.7-1.5.3-2.4-1.4 6.4 2.1 13 4 19.4 6.8zM169.5 241.9c-2.5.7-4.6.1-6.4-2 2.2.7 4.3 1.4 6.4 2z"/><path d="M103.2 234.8c.1-.3.3-.6.4-.8.2.1.4.2.5.3.1.1 0 .5-.1.5-.3 0-.6-.1-.8 0-.1-.1 0 0 0 0zM133.1 248.2c-.2-.4-.8-.7-.2-1.1.1-.1.4.1.7.1-.2.4-.3.7-.5 1zM188.4 250.9c-.2-.3-.5-.6-.5-.7 0-.2.3-.4.5-.4.1 0 .4.3.4.4.1.2-.1.4-.4.7zM105.7 236.7c-.3.3-.5.5-.7.5-.2 0-.4-.3-.5-.5 0-.1.3-.4.4-.5.2.1.4.3.8.5zM204.1 257.8c0 .2 0 .4-.1.5-.2.1-.5.2-.7.2-.1 0-.3-.4-.2-.5.1-.2.4-.3.6-.4.1 0 .3.1.4.2zM131.2 247.6c-.2-.3-.5-.5-.5-.7 0-.2.3-.5.4-.5.2 0 .5.2.5.4s-.2.4-.4.8zM122.1 210.5c.2 3 .5 5.9.7 9.1-6.3-2.5-12.4-4.9-18.6-7.4v-.2c5.9-.5 11.9-1 17.9-1.5zM201.3 279.2c-5.2.4-10.5.8-15.9 1.3-.2-2.7-.5-5.5-.7-8.5 5.7 2.4 11.1 4.6 16.6 6.9v.3zM174.1 198.7v3.9c0 1.6-.1 3.3-.1 4.9 0 .6-.1 1.2.7 1.4.2 0 .4.6.3.8-.1.3-.5.6-.8.6-.9 0-1.8-.1-2.7-.3-.4-.1-.7-.7-.9-1.2-1.4-3.5-2.8-7-4.1-10.4-.1-.3-.3-.6-.5-.8-.1 0-.2.1-.3.1-.1 3.1-.3 6.2-.4 9.4.7.1 1.3.2 1.9.3.5.1 1.1.3 1 .9-.1.6-.6.8-1.2.7-1.8-.2-3.7-.5-5.5-.7-.6-.1-1.1-.3-.9-.9.1-.3.7-.6 1.2-.7.4-.1.9.1 1.5.2.2-3.1.3-6.2.4-9.3-.7-.1-1.3-.1-1.9-.3-.4-.1-.6-.6-1-.9.4-.3.7-.7 1.1-.7 1.8.1 3.5.2 5.3.5.4.1.8.6 1 1 1.1 2.7 2.2 5.5 3.2 8.2.1.3.3.6.6.9v-7.7c-.5-.1-1.1-.1-1.7-.2-.6-.1-1.1-.3-.9-.9.1-.3.7-.7 1-.7 1.5.1 3 .2 4.6.4.5.1 1.1.3 1 .9-.1.6-.6.8-1.2.7-.2-.1-.3-.1-.7-.1zM157.4 202.8c-2.6-.4-5.1-.9-7.7-1.3-.1 0-.3 0-.4-.1-.5-.1-1.1-.3-1-.9.1-.7.6-.8 1.2-.7h.3c.1-1.3.2-2.6.3-4-.5-.1-1 0-1.4-.2-.3-.2-.6-.5-.9-.8.3-.3.6-.6 1-.7.4-.1.9 0 1.4 0 .1-1.3.2-2.7.4-4-.3-.1-.5-.1-.7-.2-.5-.1-1-.3-.9-1 .1-.7.7-.7 1.3-.7 1.5.2 3 .5 4.5.7.7.1 1.5.2 2.2.3.6.1 1.2.4 1.7-.5.1-.2.8-.3 1.1-.1.3.1.5.6.5 1 0 .8-.2 1.6-.2 2.4-.1.7-.4 1.1-1.2 1.1-.8-.1-1.1-.6-.9-1.3 0-.1 0-.3.1-.6-1.8-.3-3.6-.6-5.5-.9-.1 1.4-.2 2.6-.3 4 1.3.1 2.5.2 3.6.3.5 0 1 0 1.4.2.3.1.5.6.8.9-.3.2-.7.7-1 .7-1.1 0-2.2-.1-3.2-.2-.6 0-1.1-.1-1.8-.1-.1 1.4-.2 2.8-.4 4.3 2 .3 3.9.7 5.9 1 .1-.4.1-.7.2-1 .2-.7.7-.8 1.3-.7.6.1.9.5.8 1.1l-.3 2.4c-.1.6-.4 1-1 1s-1-.3-1.1-1c0-.2 0-.3-.1-.4zM134.2 182.9c-.3 2.7-.6 5.4-.8 8-.1.8-.2 1.7-.3 2.5-.1.7-.5 1-1.2.9-.7-.1-1-.5-.9-1.2.2-1.8.4-3.7.6-5.6-2-.2-3.9-.4-5.9-.6l-.3 4.5c.8.1 1.5.2 2.3.3.6.1 1.1.2 1.1.9-.1.7-.7.8-1.2.7-2.2-.3-4.3-.5-6.5-.8-.4-.1-.9-.5-.9-.9-.1-.6.5-.8 1.1-.7.7.1 1.4.1 2.2.2.1-1.4.2-2.7.3-4 .1-2 .3-4.1.4-6.1.1-.9.9-1.4 1.6-.9.3.2.5.7.5 1.1 0 1.3-.2 2.6-.3 3.9 2 .2 3.9.4 6 .6.1-1.1.2-2.1.4-3.2-.7-.1-1.3-.1-1.9-.2-.5-.1-1.1-.2-1-.9.1-.7.6-.8 1.2-.8 1.6.1 3.3.3 4.9.5.6.1 1.1.2 1 .9 0 .7-.6.8-1.2.8-.5.1-.8.1-1.2.1zM189.4 208c1-1.2 2-2.3 3-3.5-.7-.1-1.3-.1-1.8-.2-.6-.1-1.1-.2-1.1-.9.1-.7.6-.8 1.2-.7 1.8.2 3.5.3 5.3.5.6.1 1.2.2 1.2.9-.1.7-.7.8-1.2.7-.9-.2-1.4.2-2 .8-1.1 1.4-2.3 2.6-3.4 4 1.2 1.7 2.4 3.3 3.6 5l.6.9c.3.5.7 1 0 1.4-.6.4-1.2.3-1.6-.3-.7-1-1.4-1.9-2.1-2.9-.6-.8-1.2-1.6-1.8-2.5-.8.9-1.5 1.8-2.4 2.7.6.1 1 .1 1.4.2.3.1.7.6.7.8-.1.3-.5.8-.8.8-1.8-.1-3.5-.3-5.3-.5-.2 0-.6-.6-.6-.8.1-.3.6-.8.8-.7 1.4.4 1.9-.6 2.6-1.4.8-.9 1.5-1.8 2.3-2.7-1.5-2.1-2.9-4.1-4.4-6.1-.3-.5-.8-1-.1-1.4.6-.4 1.2-.2 1.6.4 1.1 1.5 2.2 3.1 3.3 4.6.5.2.7.5 1 .9zM114.7 184.7c-.1.8-.1 1.7-.2 2.7l2.1.3c.6.1 1.3.2 1.2.9-.1.8-.7.8-1.4.7-2.2-.3-4.5-.5-6.7-.8-.6-.1-1.2-.2-1.1-.9 0-.7.7-.8 1.3-.8.8.1 1.7.2 2.5.3.1-1 .1-1.9.2-2.8 0-.2-.2-.4-.4-.5-.2-.2-.6-.2-.8-.3-.5-.2-.9-.4-.8-1 .2-.6.7-.7 1.3-.6.2.1.4.1.7.2.1-1.5.2-2.9.3-4.4-.4 0-.8 0-1.1-.1-.3-.2-.6-.6-.9-.8.3-.3.6-.7.9-.7 2.7 0 5.4.4 7.8 1.8.6.3 1.1.8 1.6 1.3 1.6 2 .7 5-1.9 5.5-1.4.2-3 0-4.6 0zm.3-6.7c-.1 1.5-.2 2.9-.2 4.3 0 .2.3.6.5.6.8.2 1.7.3 2.5.3.9 0 1.8-.2 2.1-1.2.3-1 0-1.8-.9-2.5-1.1-.9-2.5-1.2-4-1.5zM146.8 191.7c-.2 1-.2 2-.5 3-.6 2.3-2.4 3.2-4.7 2.5-.4-.1-.8-.3-1.2-.3-2.5-.3-4.1-1.7-4.3-4.2-.2-1.7-.1-3.5.2-5.3.3-1.8 1.2-3.3 3.1-3.8 2-.5 3.7.2 5.2 1.6 1.4 1.4 1.9 3.2 2.1 5.1v1.3c0 .1.1.1.1.1zm-1.9-.3c-.3-1.2-.6-2.6-1-3.9-.4-1.1-1.2-1.8-2.4-2.2-1.1-.4-2.1-.1-2.6 1-1.1 2.4-1.3 4.8-.5 7.3.3 1 1.1 1.5 2.2 1.6.5 0 1 .2 1.5.3 1 .4 1.7.2 2.1-.9.3-.9.4-1.9.7-3.2z"/><path d="M177.7 211.5c.2-3.6.4-7 .5-10.7-.6 0-1.1-.1-1.6-.1-.6-.1-1.1-.3-.9-.9.1-.3.7-.7 1-.7 1.5 0 2.9.1 4.4.2.6 0 1.2.2 1.2.9-.1.7-.7.8-1.3.7h-.7c-.2 3.6-.4 7.1-.6 10.8.6.1 1.2.1 1.7.3.4.1.6.6.9.9-.3.2-.7.7-1 .7-2-.2-3.9-.4-5.9-.7-.3 0-.5-.5-.8-.8.3-.3.6-.7 1-.7.7-.1 1.4.1 2.1.1zM102.1 172.5c.3.1.6.1.8.2.2.1.4.3.6.5-.2.1-.4.3-.7.4-.2.1-.5 0-.7 0v.3c.3.1.6.1.9.2l.6.3c.1.1 0 .4-.1.5-.1.1-.4.1-.6.1-.3 0-.5-.1-.8-.1.1.6.2 1 .3 1.4.4.1 1.1.2 1.1.4.2 1-1 .3-1.2.8.1.5.1 1 .2 1.5.1 0 .2-.1.3-.1.2 0 .5-.1.7 0 .1 0 .1.4.1.5-.1.1-.4.2-.6.2-.2.1-.4.1-.6.1 0 .1.1.2.1.3.1 0 .3-.1.4-.1.2 0 .5.1.7.2.1.1 0 .5-.1.5-.2.1-.4.1-.6 0-.2 0-.5-.1-.8-.1.2.7.4 1 1 .8.1 0 .4.1.5.3.1.1 0 .4-.1.5-.4.4-.9.8-1.4 1.2.3.3.6.5.7.8.1.2-.3.5-.4.7h.6c.2 0 .5 0 .7.2.1 0 .1.4 0 .5-.2.1-.5.1-.7.2-.2 0-.3 0-.5.2.8.3 1.6.6 2.4 1 .7.4 1.4 1 1.9 1.6-1.7-.7-3.3-1.3-5-2-.1-.1-.3-.2-.3-.4-.1-1.4-.2-2.9-.2-4.3v-5.3-1.7c-.1-2.2-.1-4.4-.2-6.6v-1.1l1.8 1.8c-.3.2-.5.5-.8.7 0 .1 0 .1.1.2.2-.1.3-.1.5-.2s.5-.2.6-.1c.1 0 .3.4.2.5-.1.2-.3.3-.5.4-.2.1-.5.2-.7.3 0 .1.1.2.1.2.2 0 .5-.1.6 0 .2.1.4.3.5.5-.2.2-.4.4-.6.4-.2.1-.5 0-.8 0v.7zM204.5 216.5c-.1-.6-.2-1-.3-1.3-.3-.1-1.1-.2-1.1-.4-.1-1 1-.2 1.2-.8-.1-.5-.2-1-.2-1.4h-.2c-.3 0-.6.1-.8.1l-.1-.5c.2-.1.5-.1.8-.2.2-.1.3-.2.6-.4-.3-.1-.4-.1-.5-.1-.3 0-.6-.1-.8-.1 0 0 0-.5.1-.5H204.4c.1-.1.2-.3.1-.4-.1-.2-.3-.4-.5-.5-.3-.1-.6-.1-.9-.2.2-.2.4-.4.6-.7.3-.4.5-.8.8-1.3-.8-.3-.9-.7-.3-1.4-.2 0-.4.1-.6.1-.2 0-.5-.1-.6-.2-.1-.1-.1-.4 0-.5.1-.1.4-.2.6-.3.2 0 .4 0 .7.1-.9-.9-2.4-.7-3-1.9 0-.1.1-.2.1-.3 1.2.4 2.3.8 3.5 1.3.2.1.4.4.4.7v7.1c0 2.8.2 5.7.3 8.5v3c-.6-.6-1.1-1.2-1.7-1.8.3-.2.6-.4.8-.7 0-.1 0-.1-.1-.2-.2.1-.4.2-.6.2-.2 0-.5.1-.6 0-.1 0-.2-.4-.2-.4.1-.2.3-.3.5-.4.2-.1.5-.2.7-.3 0-.1-.1-.2-.1-.2-.2 0-.4.1-.6 0-.2-.1-.4-.3-.6-.5.2-.1.4-.3.7-.4.2-.1.5 0 .8 0v-.4c-.3-.1-.6-.1-.8-.2-.2-.1-.4-.3-.6-.5.2-.2.5-.4.7-.4.2-.1.5 0 .7 0 0-.1 0-.2.1-.3l-.9-.3c-.2-.1-.5-.2-.7-.3-.1 0 0-.4.1-.5.2-.1.4-.1.7-.1.2.1.4.2.6.2zM178.3 195.9c-.2-.4-.4-.7-.7-1.1-.9.9-1.3-.1-1.9-.6-.5.7-1 .8-1.3-.1 0-.1-.1-.1-.2-.2-.9-.2-1.8-.3-2.7-.5-.3-.1-.5-.4-.8-.4-.5-.2-.9-.4-1.5-.6 0 .1-.1.4-.2.8-.6 0-.6 0-.6-.6 0-.1-.1-.4-.2-.4-.2 0-.4 0-.6.1-.3.1-.6.2-.8.3 0-.1-.1-.2-.1-.2l.2-.4c-1.9-.8-3.8-1.3-5.3-3 2 .7 3.8 1.5 5.7 2.1.8.3 1.7.3 2.5.5 1.3.4 2.5.9 3.7 1.4.1 0 .2.1.3.1 1.3.3 2.6.6 3.8 1 1.5.5 2.9 1.1 4.4 1.7 1.1.4 2.2.7 3.3 1 1.3.5 2.7 1 4 1.5l2.4.9v.2c-.5 0-1-.1-1.5-.1-.1 0-.3-.1-.4 0-.7.4-1.1.3-1.1-.6 0-.1-.3-.2-.5-.2-.4-.1-.7-.1-1.2-.2 0 .1 0 .5-.1.9-.3-.1-.6-.2-.8-.2-.1-.5-.1-.9-.3-1.1-.2-.3-.8 0-.7.3 0 .2.2.4.3.8-.5-.1-.8-.2-1-.3v-1.8h-.3c-.2.5-.4.9-.6 1.5-.3-.6-.5-1.1-.7-1.7-.5.3-1.1.5-1.2-.4-.6.1-1.1.1-1.8.2.3-.3.4-.5.6-.7-.7.2-1.3.6-1.5-.6-.2.3-.3.5-.6.7zM137.1 199.6c.2-.4.4-.6.5-.8.1-.2.2-.5.3-.7 0 0 .5.1.5.2 0 .3-.1.5-.1.8v.2c.8.7.8-.1 1.1-.7.2.3.4.5.6.8-.1.1-.2.3-.2.4l3.3.9c.1 0 .1.2.2.2.7.1.7.1.7.7.9.2 1.8.4 2.8.7.2.1.4.4.7.7-1.3.1-2.1 0-3-.5-1-.5-2.1-.7-3.2-1.1-.4-.1-.7-.3-1.1-.4-.6-.2-1.1-.4-1.7-.5-.4-.1-.9-.2-1.3-.3-1.3-.5-2.6-.9-4-1.4h-.1c-1.3-.3-2.6-.6-3.9-1-.9-.3-1.7-.7-2.6-1.2.8.1 1.7.1 2.5.2v.3c.2-.2.5-.3.8-.5.3.4.6.8 1 1.3.6-.8 1.1-.9 1.4-.1 0 .1.1.2.2.2.9.2 1.8.3 2.7.5.3.1.5.4.9.6.4-.7.8-.5 1 .5zM122.1 169.4c-5.6-2.3-11-4.5-16.4-6.8v-.2c5.2-.5 10.3-1 15.6-1.5.3 2.8.5 5.5.8 8.5zM199.9 228.5c-4.9.4-9.9.9-14.9 1.3-.2-2.7-.5-5.4-.7-8.2 5.3 2.3 10.5 4.5 15.7 6.6-.1.2-.1.3-.1.3zM129.6 312c-6.8.7-13.5 1.4-20.4 2.1l-2.1-20.4c6.8-.7 13.5-1.4 20.4-2.1.7 6.8 1.4 13.5 2.1 20.4z"/><path fill="#FFF" d="M178.6 256v-4.7c1.4.2 2.7.3 3.9.4.2 0 .4.3.5.4.5 1.2-.1 2.7-1.3 3.2-.9.3-2 .4-3.1.7zM127.6 236.7c-.8-.1-1.5-.1-2.4-.2.4-.9.9-1.8 1.4-2.8.3 1.1.6 2 1 3zM115 178c1.5.2 2.8.6 4 1.5.9.7 1.2 1.6.9 2.5-.3 1-1.2 1.2-2.1 1.2-.8 0-1.7-.1-2.5-.3-.2 0-.5-.4-.5-.6.1-1.4.2-2.8.2-4.3zM144.9 191.4c-.3 1.2-.4 2.3-.7 3.3-.3 1-1 1.2-2.1.9-.5-.2-1-.3-1.5-.3-1.1-.1-1.8-.6-2.2-1.6-.9-2.5-.7-5 .5-7.3.5-1.1 1.4-1.3 2.6-1 1.1.4 2 1.1 2.4 2.2.4 1.3.7 2.6 1 3.8zm-2.5-2.1c0-.3 0-.5.1-.8.1-.8-.2-1.2-.9-1.2s-1 .3-1.1 1c-.1 1.5-.2 3-.4 4.5-.1.7.2 1.1.9 1.2.7.1 1.1-.2 1.1-1 .1-1.3.2-2.5.3-3.7z"/><path d="M142.4 189.3c-.1 1.2-.2 2.4-.3 3.7-.1.7-.5 1-1.1 1-.7-.1-1-.5-.9-1.2.1-1.5.3-3 .4-4.5.1-.7.4-1.1 1.1-1 .7.1 1.1.5.9 1.2-.1.2-.1.5-.1.8z"/></svg>